<?xml version='1.0' encoding='utf-8'?>
<svg xmlns="http://www.w3.org/2000/svg" width="1920" height="1080" viewBox="0 0 1920 1080" data-theme="light">
  <style>
        @font-face {
            font-family: 'Inter';
            src: url('assets/fonts/Inter-Regular.ttf') format('truetype');
            font-weight: 400;
            font-style: normal;
            font-display: swap;
        }
        @font-face {
            font-family: 'Inter';
            src: url('assets/fonts/Inter-Bold.ttf') format('truetype');
            font-weight: 600;
            font-style: normal;
            font-display: swap;
        }
        @font-face {
            font-family: 'Inter';
            src: url('assets/fonts/Inter-Bold.ttf') format('truetype');
            font-weight: 800;
            font-style: normal;
            font-display: swap;
        }
        
:root {
    --background: #f8fafc;
    --panel: #ffffff;
    --primary-text: #0f172a;
    --muted-text: #64748b;
    --inverse-text: #ffffff;
    --border: #e2e8f0;
    --shadow-color: #000000;
    --icon-pad-bg: #1e293b;
    --art-glow: #0891b2;
    --art-glow-opacity: 0.10;
    --art-sheen: #ffffff;
    --art-sheen-opacity: 0.34;
    --art-shadow: #0f172a;
    --art-shadow-opacity: 0.14;
    --art-muted-line: #94a3b8;
    --art-panel-tint: #f1f5f9;
    --font-family: 'Inter', 'Segoe UI', 'Kalam', Roboto, Helvetica, Arial, sans-serif;
    --radius-xl: 16px;
    --font-family-headline: 'Inter', 'Segoe UI', 'Kalam', Roboto, Helvetica, Arial, sans-serif;
    --font-family-body: 'Inter', 'Segoe UI', 'Kalam', Roboto, Helvetica, Arial, sans-serif;
    --font-heading: 'Inter', 'Segoe UI', 'Kalam', Roboto, Helvetica, Arial, sans-serif;
    --font-body: 'Inter', 'Segoe UI', 'Kalam', Roboto, Helvetica, Arial, sans-serif;
    --font-size-h1: 56px;
    --font-size-h2: 40px;
    --font-size-h3: 28px;
    --font-size-body: 24px;
    --font-size-caption: 18px;
    --secondary-text: var(--muted-text);
    --panel-border: var(--border);
    --font-weight-normal: 400;
    --font-weight-medium: 500;
    --font-weight-semibold: 600;
    --font-weight-bold: 700;
    --spacing-gutter-pct: 0.07;
    --spacing-top-pct: 0.15;
    --spacing-bottom-pct: 0.07;
    --spacing-title-y-pct: 0.055;
    --accent-1: #2563eb;
    --accent-2: #16a34a;
    --accent-3: #ea580c;
    --accent-4: #7c3aed;
    --accent-5: #0284c7;
    --accent-6: #475569;
}
:root[data-theme="dark"] {
    --background: #0f172a;
    --panel: #1e293b;
    --primary-text: #f1f5f9;
    --muted-text: #94a3b8;
    --inverse-text: #0f172a;
    --border: #334155;
    --shadow-color: #000000;
    --icon-pad-bg: #1e293b;
    --art-glow: #7dd3fc;
    --art-glow-opacity: 0.18;
    --art-sheen: #ffffff;
    --art-sheen-opacity: 0.18;
    --art-shadow: #000000;
    --art-shadow-opacity: 0.28;
    --art-muted-line: #64748b;
    --art-panel-tint: #1e293b;
    --accent-1: #60a5fa;
    --accent-2: #4ade80;
    --accent-3: #f97316;
    --accent-4: #a78bfa;
    --accent-5: #38bdf8;
    --accent-6: #94a3b8;
}
:root[data-theme="light"] {
    --background: #f8fafc;
    --panel: #ffffff;
    --primary-text: #0f172a;
    --muted-text: #64748b;
    --inverse-text: #ffffff;
    --border: #e2e8f0;
    --shadow-color: #000000;
    --icon-pad-bg: #1e293b;
    --art-glow: #0891b2;
    --art-glow-opacity: 0.10;
    --art-sheen: #ffffff;
    --art-sheen-opacity: 0.34;
    --art-shadow: #0f172a;
    --art-shadow-opacity: 0.14;
    --art-muted-line: #94a3b8;
    --art-panel-tint: #f1f5f9;
    --accent-1: #2563eb;
    --accent-2: #16a34a;
    --accent-3: #ea580c;
    --accent-4: #7c3aed;
    --accent-5: #0284c7;
    --accent-6: #475569;
}</style>
  <rect x="0" y="0" width="1.92E+3" height="1.08E+3" fill="#252a34" stroke="none" id="programmatic_background"/>
  <line id="HEADER_DECOR" x1="960.0" x2="1080.0" y1="135.0" y2="135.0" stroke="var(--accent-1)" stroke-width="6" stroke-linecap="round"/>
  <defs>
    <pattern id="svg74dc1c42-napkin-hatch" patternUnits="userSpaceOnUse" width="12" height="12">
      <path d="M -3 12 L 12 -3 M 0 15 L 15 0" fill="none" stroke="var(--primary-text)" stroke-width="1" stroke-opacity="0.05"/>
    </pattern>
    <filter id="svg74dc1c42-soft-shadow" x="-30%" y="-30%" width="160%" height="160%">
      <feDropShadow dx="0" dy="3" stdDeviation="6" flood-color="#000000" flood-opacity="0.20"/>
    </filter>
    <radialGradient id="svg74dc1c42-universal-edge-vignette" cx="50%" cy="50%" r="72%">
      <stop offset="0%" stop-color="var(--background)" stop-opacity="0"/>
      <stop offset="72%" stop-color="var(--background)" stop-opacity="0.12"/>
      <stop offset="100%" stop-color="var(--primary-text)" stop-opacity="0.08"/>
    </radialGradient>
    <linearGradient id="svg74dc1c42-universal-surface-sheen" x1="0%" y1="0%" x2="100%" y2="100%">
      <stop offset="0%" stop-color="var(--art-sheen)" stop-opacity="var(--art-sheen-opacity)"/>
      <stop offset="46%" stop-color="var(--art-sheen)" stop-opacity="0.035"/>
      <stop offset="100%" stop-color="var(--art-panel-tint)" stop-opacity="0.14"/>
    </linearGradient>
    <radialGradient id="svg74dc1c42-universal-icon-aura" cx="50%" cy="42%" r="64%">
      <stop offset="0%" stop-color="var(--art-glow)" stop-opacity="var(--art-glow-opacity)"/>
      <stop offset="100%" stop-color="var(--background)" stop-opacity="0"/>
    </radialGradient>
    <filter id="svg74dc1c42-text-glow" x="-20%" y="-20%" width="140%" height="140%">
      <feDropShadow dx="0" dy="0" stdDeviation="2" flood-color="#000000" flood-opacity="0.4"/>
    </filter>
    <filter id="svg74dc1c42-shadow" x="-30%" y="-30%" width="160%" height="160%">
      <feDropShadow dx="0" dy="2" stdDeviation="3" flood-color="#000000" flood-opacity="0.08"/>
      <feDropShadow dx="0" dy="6" stdDeviation="10" flood-color="#000000" flood-opacity="0.12"/>
    </filter>
    <marker id="svg74dc1c42-arrowhead" markerWidth="10" markerHeight="7" refX="9" refY="3.5" orient="auto" markerUnits="strokeWidth">
      <polygon points="0 0, 10 3.5, 0 7" fill="var(--muted-text)" opacity="0.6"/>
    </marker>
  </defs>
  <rect id="CANVAS_BG" width="100%" height="100%" fill="var(--background)"/>
  <rect width="100%" height="100%" fill="url(#svg74dc1c42-napkin-hatch)"/>
  <rect id="UNIVERSAL_EDGE_VIGNETTE" width="100%" height="100%" fill="url(#svg74dc1c42-universal-edge-vignette)" opacity="0.62"/>
  <text id="TITLE" x="960.0" y="59" text-anchor="middle" font-size="56" font-weight="800" fill="#0f172a" style="font-size: 60px; font-family: Inter, Segoe UI, Kalam, Roboto, Helvetica, Arial, sans-serif; font-weight: 700; letter-spacing:-1.2px;" data-final-font-size="60">
    <tspan x="960.0" dy="68.00px">MUFON vs CUFOS Archive Differences</tspan>
  </text>
  <rect id="TITLE_FRAME" x="134" y="59" width="1652" height="103" fill="none"/>
  <line x1="687.0" y1="434.0" x2="768.0" y2="434.0" stroke="var(--muted-text)" stroke-width="4" stroke-dasharray="10 9" opacity="0.8"/>
  <circle cx="727.5" cy="434.0" r="34" fill="var(--panel)" stroke="var(--muted-text)" stroke-width="2"/>
  <text x="727.5" y="444.0" text-anchor="middle" font-size="34" font-weight="900" fill="var(--muted-text)">VS</text>
  <line x1="1152.0" y1="434.0" x2="1233.0" y2="434.0" stroke="var(--muted-text)" stroke-width="4" stroke-dasharray="10 9" opacity="0.8"/>
  <circle cx="1192.5" cy="434.0" r="34" fill="var(--panel)" stroke="var(--muted-text)" stroke-width="2"/>
  <text x="1192.5" y="444.0" text-anchor="middle" font-size="34" font-weight="900" fill="var(--muted-text)">VS</text>
  <line x1="882.0" y1="824.0" x2="1038.0" y2="824.0" stroke="var(--muted-text)" stroke-width="4" stroke-dasharray="10 9" opacity="0.8"/>
  <circle cx="960.0" cy="824.0" r="34" fill="var(--panel)" stroke="var(--muted-text)" stroke-width="2"/>
  <text x="960.0" y="834.0" text-anchor="middle" font-size="34" font-weight="900" fill="var(--muted-text)">VS</text>
  <g transform="translate(495.0, 280.0)" filter="url(#svg74dc1c42-soft-shadow)">
    <rect id="ITEM_1_BG" x="-200.0" y="0" width="400.0" height="360" rx="26" fill="var(--panel)" fill-opacity="0.95" stroke="var(--accent-1)" stroke-width="3"/>
    <rect x="-184.0" y="12" width="368.0" height="8" rx="4" fill="var(--accent-1)" fill-opacity="0.55"/>
    <circle id="ITEM_1_PAD" cx="0" cy="74" r="46" fill="var(--icon-pad-bg)" stroke="var(--primary-text)" opacity="0.9" fill-opacity="0.9" stroke-width="2"/>
    <circle id="ITEM_1_PAD_INNER" cx="0" cy="74" r="35.88" fill="var(--accent-3)" fill-opacity="0.22"/>
    <circle cx="0" cy="74" r="36" fill="none" stroke="var(--accent-1)" stroke-width="3" stroke-dasharray="6 4"/>
    <g id="ITEM_1_ICON" transform="translate(-34, 40)" data-icon-size="68" stroke-dasharray="6 4">
      <g transform="translate(-1.8800000000000026,-1.880000000000003) scale(5.125714285714286)" vector-effect="non-scaling-stroke" stroke-width="2.53" stroke-linecap="round" stroke-linejoin="round" stroke-opacity="1.0">
        <path id="Vector" fill="none" d="M1.5 5h11v7c0 0.2652 -0.1054 0.5196 -0.2929 0.7071S11.7652 13 11.5 13h-9c-0.26522 0 -0.51957 -0.1054 -0.70711 -0.2929C1.60536 12.5196 1.5 12.2652 1.5 12V5Z" vector-effect="non-scaling-stroke" stroke="#f1f5f9"/>
        <path id="Vector_2" fill="none" d="M13.5 4V2c0 -0.55228 -0.4477 -1 -1 -1l-11 0c-0.552285 0 -1 0.44772 -1 1v2c0 0.55228 0.447715 1 1 1l11 0c0.5523 0 1 -0.44772 1 -1Z" vector-effect="non-scaling-stroke" stroke="#f1f5f9"/>
        <path id="Vector_3" stroke="#f1f5f9" d="M1.5 5h11v7c0 0.2652 -0.1054 0.5196 -0.2929 0.7071S11.7652 13 11.5 13h-9c-0.26522 0 -0.51957 -0.1054 -0.70711 -0.2929C1.60536 12.5196 1.5 12.2652 1.5 12V5v0Z" vector-effect="non-scaling-stroke" fill="none"/>
        <path id="Vector_4" stroke="#f1f5f9" d="M13.5 4V2c0 -0.55228 -0.4477 -1 -1 -1l-11 0c-0.552285 0 -1 0.44772 -1 1v2c0 0.55228 0.447715 1 1 1l11 0c0.5523 0 1 -0.44772 1 -1Z" vector-effect="non-scaling-stroke" fill="none"/>
        <path id="Vector_5" stroke="#f1f5f9" d="M5.5 8h3" vector-effect="non-scaling-stroke" fill="none"/>
      </g>
    </g>
    <text id="ITEM_1_HEAD" x="0.0" y="138.0" text-anchor="middle" font-size="44" font-weight="800" fill="var(--primary-text)" data-bg-id="ITEM_1_BG" fill-opacity="1.0" style="font-size: 30px; font-family: Inter, Segoe UI, Kalam, Roboto, Helvetica, Arial, sans-serif; font-weight: 700; letter-spacing:-0.4px;" data-final-font-size="30">
      <tspan x="0.0" dy="42.25px">MUFON Documentation</tspan>
    </text>
    <rect id="ITEM_1_HEAD_FRAME" x="-165.0" y="138" width="330.0" height="68" fill="none"/>
    <text id="ITEM_1_BODY" x="0.0" y="206.0" text-anchor="middle" font-size="27" fill="var(--primary-text)" data-bg-id="ITEM_1_BG" style="font-size: 26px; font-family: Inter, Segoe UI, Kalam, Roboto, Helvetica, Arial, sans-serif; font-weight: 400;" data-final-font-size="26">
      <tspan x="0.0" dy="33.66px">Expansive archive including</tspan>
      <tspan x="0.0" dy="29.90px">medical discussions and</tspan>
      <tspan x="0.0" dy="29.90px">litigation leads</tspan>
    </text>
    <rect id="ITEM_1_BODY_FRAME" x="-190.0" y="206" width="380" height="154" fill="none"/>
  </g>
  <g transform="translate(960.0, 280.0)" filter="url(#svg74dc1c42-soft-shadow)">
    <rect id="ITEM_2_BG" x="-200.0" y="0" width="400.0" height="360" rx="26" fill="var(--panel)" fill-opacity="0.95" stroke="var(--accent-2)" stroke-width="3"/>
    <rect x="-184.0" y="12" width="368.0" height="8" rx="4" fill="var(--accent-2)" fill-opacity="0.55"/>
    <circle id="ITEM_2_PAD" cx="0" cy="74" r="46" fill="var(--icon-pad-bg)" stroke="var(--primary-text)" opacity="0.9" fill-opacity="0.9" stroke-width="2"/>
    <circle id="ITEM_2_PAD_INNER" cx="0" cy="74" r="35.88" fill="var(--accent-4)" fill-opacity="0.22"/>
    <circle cx="0" cy="74" r="36" fill="none" stroke="var(--accent-2)" stroke-width="3" stroke-dasharray="6 4"/>
    <g id="ITEM_2_ICON" transform="translate(-34, 40)" data-icon-size="68" stroke-dasharray="6 4">
      <g transform="translate(-1.8800000000000026,-1.8800000000000026) scale(5.125714285714286)" vector-effect="non-scaling-stroke" stroke-width="2.53" stroke-linecap="round" stroke-linejoin="round" stroke-opacity="1.0">
        <path id="Vector" fill="none" d="M6 11.5a5.5 5.5 0 1 0 0 -11 5.5 5.5 0 0 0 0 11Z" vector-effect="non-scaling-stroke" stroke="#f1f5f9"/>
        <path id="Vector_2" stroke="#f1f5f9" d="M6 11.5a5.5 5.5 0 1 0 0 -11 5.5 5.5 0 0 0 0 11Z" vector-effect="non-scaling-stroke" fill="none"/>
        <path id="Vector_3" stroke="#f1f5f9" d="M13.5 13.5 10 10" vector-effect="non-scaling-stroke" fill="none"/>
      </g>
    </g>
    <text id="ITEM_2_HEAD" x="0.0" y="138.0" text-anchor="middle" font-size="44" font-weight="800" fill="var(--accent-4)" data-bg-id="ITEM_2_BG" fill-opacity="1.0" style="font-size: 30px; font-family: Inter, Segoe UI, Kalam, Roboto, Helvetica, Arial, sans-serif; font-weight: 700; letter-spacing:-0.4px;" data-final-font-size="30">
      <tspan x="0.0" dy="42.25px">CUFOS Snapshot</tspan>
    </text>
    <rect id="ITEM_2_HEAD_FRAME" x="-165.0" y="138" width="330.0" height="68" fill="none"/>
    <text id="ITEM_2_BODY" x="0.0" y="206.0" text-anchor="middle" font-size="27" fill="var(--primary-text)" data-bg-id="ITEM_2_BG" style="font-size: 26px; font-family: Inter, Segoe UI, Kalam, Roboto, Helvetica, Arial, sans-serif; font-weight: 400;" data-final-font-size="26">
      <tspan x="0.0" dy="39.64px">Narrower record providing</tspan>
      <tspan x="0.0" dy="29.90px">an early analytical assessment</tspan>
    </text>
    <rect id="ITEM_2_BODY_FRAME" x="-190.0" y="206" width="380" height="154" fill="none"/>
  </g>
  <g transform="translate(1425.0, 280.0)" filter="url(#svg74dc1c42-soft-shadow)">
    <rect id="ITEM_3_BG" x="-200.0" y="0" width="400.0" height="360" rx="26" fill="var(--panel)" fill-opacity="0.95" stroke="var(--accent-3)" stroke-width="3"/>
    <rect x="-184.0" y="12" width="368.0" height="8" rx="4" fill="var(--accent-3)" fill-opacity="0.55"/>
    <circle id="ITEM_3_PAD" cx="0" cy="74" r="46" fill="var(--icon-pad-bg)" stroke="var(--primary-text)" opacity="0.9" fill-opacity="0.9" stroke-width="2"/>
    <circle id="ITEM_3_PAD_INNER" cx="0" cy="74" r="35.88" fill="var(--accent-5)" fill-opacity="0.22"/>
    <circle cx="0" cy="74" r="36" fill="none" stroke="var(--accent-3)" stroke-width="3" stroke-dasharray="6 4"/>
    <g id="ITEM_3_ICON" transform="translate(-34, 40)" data-icon-size="68" stroke-dasharray="6 4">
      <g transform="translate(-4.920677966101701,-4.920677966101698) scale(3.243389830508475)" vector-effect="non-scaling-stroke" stroke-width="2.53" stroke-linecap="round" stroke-linejoin="round" stroke-opacity="1.0">
        <path d="M4 19.5v-15A2.5 2.5 0 0 1 6.5 2H19a1 1 0 0 1 1 1v18a1 1 0 0 1-1 1H6.5a1 1 0 0 1 0-5H20" vector-effect="non-scaling-stroke" fill="none" stroke="#f1f5f9"/>
        <path d="m8 13 4-7 4 7" vector-effect="non-scaling-stroke" fill="none" stroke="#f1f5f9"/>
        <path d="M9.1 11h5.7" vector-effect="non-scaling-stroke" fill="none" stroke="#f1f5f9"/>
      </g>
    </g>
    <text id="ITEM_3_HEAD" x="0.0" y="138.0" text-anchor="middle" font-size="44" font-weight="800" fill="var(--primary-text)" data-bg-id="ITEM_3_BG" fill-opacity="1.0" style="font-size: 30px; font-family: Inter, Segoe UI, Kalam, Roboto, Helvetica, Arial, sans-serif; font-weight: 700; letter-spacing:-0.4px;" data-final-font-size="30">
      <tspan x="0.0" dy="42.25px">Schuessler Narrative</tspan>
    </text>
    <rect id="ITEM_3_HEAD_FRAME" x="-165.0" y="138" width="330.0" height="68" fill="none"/>
    <text id="ITEM_3_BODY" x="0.0" y="206.0" text-anchor="middle" font-size="27" fill="var(--primary-text)" data-bg-id="ITEM_3_BG" style="font-size: 26px; font-family: Inter, Segoe UI, Kalam, Roboto, Helvetica, Arial, sans-serif; font-weight: 400;" data-final-font-size="26">
      <tspan x="0.0" dy="33.66px">Decades of accumulated</tspan>
      <tspan x="0.0" dy="29.90px">material into a single</tspan>
      <tspan x="0.0" dy="29.90px">framework</tspan>
    </text>
    <rect id="ITEM_3_BODY_FRAME" x="-190.0" y="206" width="380" height="154" fill="none"/>
  </g>
  <g transform="translate(690.0, 670.0)" filter="url(#svg74dc1c42-soft-shadow)">
    <rect id="ITEM_4_BG" x="-200.0" y="0" width="400.0" height="360" rx="26" fill="var(--panel)" fill-opacity="0.95" stroke="var(--accent-4)" stroke-width="3"/>
    <rect x="-184.0" y="12" width="368.0" height="8" rx="4" fill="var(--accent-4)" fill-opacity="0.55"/>
    <circle id="ITEM_4_PAD" cx="0" cy="74" r="46" fill="var(--icon-pad-bg)" stroke="var(--primary-text)" opacity="0.9" fill-opacity="0.9" stroke-width="2"/>
    <circle id="ITEM_4_PAD_INNER" cx="0" cy="74" r="35.88" fill="var(--accent-6)" fill-opacity="0.22"/>
    <circle cx="0" cy="74" r="36" fill="none" stroke="var(--accent-4)" stroke-width="3" stroke-dasharray="6 4"/>
    <g id="ITEM_4_ICON" transform="translate(-34, 40)" data-icon-size="68" stroke-dasharray="6 4">
      <g transform="translate(-7.75127272727273,-7.75127272727273) scale(2.6094545454545455)">
        <path d="M24.4853 3.27211C25.6569 2.10054 27.5564 2.10054 28.7279 3.27211C29.8995 4.44368 29.8995 6.34318 28.7279 7.51475L10.6967 25.546C10.5323 25.7104 10.2818 25.7364 10.0903 25.6239C10.018 25.5815 9.94749 25.5336 9.86715 25.51L7.1556 24.7138L6.48825 22.1422C6.46587 22.0559 6.4157 21.98 6.37191 21.9024C6.26436 21.7118 6.29174 21.4657 6.45406 21.3033L24.4853 3.27211Z" fill="#0074BA"/>
        <path d="M23.4265 3.62749C23.817 3.23696 24.4501 3.23696 24.8407 3.62749L29.435 8.22185C29.8256 8.61237 29.8256 9.24554 29.435 9.63606L24.4853 14.5858C24.0948 14.9763 23.4616 14.9763 23.0711 14.5858C22.6805 14.1953 22.6805 13.5621 23.0711 13.1716L27.3137 8.92896L23.4265 5.0417C23.0359 4.65118 23.0359 4.01801 23.4265 3.62749Z" fill="#D3D3D3"/>
        <path d="M13.8805 13.1734C14.0758 12.9781 14.3924 12.9781 14.5876 13.1734L18.8303 17.416C19.0255 17.6113 19.0255 17.9279 18.8303 18.1231L18.1232 18.8302C17.9279 19.0255 17.6113 19.0255 17.4161 18.8302L13.1734 14.5876C12.9782 14.3923 12.9782 14.0757 13.1734 13.8805L13.8805 13.1734Z" fill="#D3D3D3"/>
        <path d="M6.45405 22.0104L9.98958 25.5459L7.98546 27.55C7.6754 27.8601 7.30113 28.0984 6.88902 28.2482L2.80229 29.7337C2.65021 29.789 2.47987 29.7512 2.36544 29.6368C2.25108 29.5224 2.21325 29.3522 2.26841 29.2002L3.75179 25.1119C3.90156 24.6992 4.1401 24.3243 4.45057 24.0139L6.45405 22.0104Z" fill="#D3D3D3"/>
        <path d="M6.8076 26.6065C6.41708 26.997 5.78391 26.997 5.39339 26.6065C5.00286 26.216 5.00286 25.5828 5.39339 25.1923C5.78391 24.8018 6.41708 24.8018 6.8076 25.1923C7.19813 25.5828 7.19813 26.216 6.8076 26.6065Z" fill="#636363"/>
      </g>
    </g>
    <text id="ITEM_4_HEAD" x="0.0" y="138.0" text-anchor="middle" font-size="44" font-weight="800" fill="var(--accent-6)" data-bg-id="ITEM_4_BG" fill-opacity="1.0" style="font-size: 30px; font-family: Inter, Segoe UI, Kalam, Roboto, Helvetica, Arial, sans-serif; font-weight: 700; letter-spacing:-0.4px;" data-final-font-size="30">
      <tspan x="0.0" dy="42.25px">Hendry Analysis</tspan>
    </text>
    <rect id="ITEM_4_HEAD_FRAME" x="-165.0" y="138" width="330.0" height="68" fill="none"/>
    <text id="ITEM_4_BODY" x="0.0" y="206.0" text-anchor="middle" font-size="27" fill="var(--primary-text)" data-bg-id="ITEM_4_BG" style="font-size: 26px; font-family: Inter, Segoe UI, Kalam, Roboto, Helvetica, Arial, sans-serif; font-weight: 400;" data-final-font-size="26">
      <tspan x="0.0" dy="33.66px">Comparative case methods</tspan>
      <tspan x="0.0" dy="29.90px">before later</tspan>
      <tspan x="0.0" dy="29.90px">assumptions hardened</tspan>
    </text>
    <rect id="ITEM_4_BODY_FRAME" x="-190.0" y="206" width="380" height="154" fill="none"/>
  </g>
  <g transform="translate(1230.0, 670.0)" filter="url(#svg74dc1c42-soft-shadow)">
    <rect id="ITEM_5_BG" x="-200.0" y="0" width="400.0" height="360" rx="26" fill="var(--panel)" fill-opacity="0.95" stroke="var(--accent-5)" stroke-width="3"/>
    <rect x="-184.0" y="12" width="368.0" height="8" rx="4" fill="var(--accent-5)" fill-opacity="0.55"/>
    <circle id="ITEM_5_PAD" cx="0" cy="74" r="46" fill="var(--icon-pad-bg)" stroke="var(--primary-text)" opacity="0.9" fill-opacity="0.9" stroke-width="2"/>
    <circle id="ITEM_5_PAD_INNER" cx="0" cy="74" r="35.88" fill="var(--accent-1)" fill-opacity="0.22"/>
    <circle cx="0" cy="74" r="36" fill="none" stroke="var(--accent-5)" stroke-width="3" stroke-dasharray="6 4"/>
    <g id="ITEM_5_ICON" transform="translate(-34, 40)" data-icon-size="68" stroke-dasharray="6 4">
      <g transform="translate(-4.59361344537815,-4.292100840336137) scale(0.1507563025210084)" vector-effect="non-scaling-stroke" fill="#f1f5f9" fill-opacity="1.0" stroke="none">
        <path fill="#f1f5f9" d="M335.594 18.53c-40.164.157-75.583 36.542-88.656 51.75c-25.09-4.49-50.48-6.746-76.094-6.53c-19.542.165-39.218 1.786-58.97 4.875c-22.38-17.928-46.586-31.63-72.5-36.97C12.973 45.292 20.87 66.202 26.75 86.688c33.85-2.782 68.376 8.017 103.063 24.438a596 596 0 0 1 22.468 15.75c10.193 36.02 15.185 71.684 16.75 107.22c-24.967 5.267-73.76 20.245-87.968 58.56l56.657-8.06l-60.782 30.592c-1.59 28.013 4.228 50.995 12.28 71.844l38.626-40.874l-29.063 63.25c12.435 27.13 25.52 52.227 25.75 82.844c15.673-15.742 30.667-28.657 44.314-40.78l-9.313-58.94l22.22 47.25c17.657-16.465 32.232-32.686 41.78-54.155l-36.28-56.063l44.594 30.47c.21-.965.4-1.953.594-2.938c11.05-55.837-31.68-107.473-44.657-121.625c-1.19-29.747-4.676-59.735-11.5-90.032c39.703 32.23 78.083 71.073 113.064 115.28c-8.172 28.668-12.69 52.292-14.156 71.97l31.593-28.47l-30.81 61.626c3.548 23.952 13.97 39.684 29 51.562l25.342-46.156l-9.062 56.813c16.678 9.177 36.777 16.253 58.406 24.78c-.176-16.76.29-29.34.28-48.343l17.564 55.688c18.85 8.084 38.462 17.87 57.72 31.562c2.478-28.53 2.51-57.14-.345-84.188l-53.688-20.625l51.594 4.313c-3.97-25.8-10.814-49.764-20.967-70.313L371.5 307.344l47.094-8.53c-21.232-29.417-52.085-47.727-94.563-47.69c-5.655.006-11.52.36-17.592 1.032c-49.197-62.79-105.105-115.302-162.657-154.25a401 401 0 0 0-13.155-12.97c38.91-4.456 77.396-2.886 115.25 4.095c7.227 18.038 23.78 51.747 52.094 69.376l-6.75-53.562l29.436 63.062c2.974.69 6.026 1.226 9.188 1.53c59.64 5.77 98.592-45.932 158.937-38.686c-18.445-8.86-31.076-21.388-42.717-35.063l-67.844.563l51.405-20.53c-14.13-17.083-30.05-34.107-56.094-46.75L324.876 58.5l25.875-38.22a64.8 64.8 0 0 0-15.156-1.75z" vector-effect="non-scaling-stroke" stroke="none"/>
      </g>
    </g>
    <text id="ITEM_5_HEAD" x="0.0" y="138.0" text-anchor="middle" font-size="44" font-weight="800" fill="var(--accent-1)" data-bg-id="ITEM_5_BG" fill-opacity="1.0" style="font-size: 30px; font-family: Inter, Segoe UI, Kalam, Roboto, Helvetica, Arial, sans-serif; font-weight: 700; letter-spacing:-0.4px;" data-final-font-size="30">
      <tspan x="0.0" dy="42.25px">Evidence Evolution</tspan>
    </text>
    <rect id="ITEM_5_HEAD_FRAME" x="-165.0" y="138" width="330.0" height="68" fill="none"/>
    <text id="ITEM_5_BODY" x="0.0" y="206.0" text-anchor="middle" font-size="27" fill="var(--primary-text)" data-bg-id="ITEM_5_BG" style="font-size: 26px; font-family: Inter, Segoe UI, Kalam, Roboto, Helvetica, Arial, sans-serif; font-weight: 400;" data-final-font-size="26">
      <tspan x="0.0" dy="33.66px">Branching archives reveal how</tspan>
      <tspan x="0.0" dy="29.90px">interpretations changed</tspan>
      <tspan x="0.0" dy="29.90px">over time</tspan>
    </text>
    <rect id="ITEM_5_BODY_FRAME" x="-190.0" y="206" width="380" height="154" fill="none"/>
  </g>
</svg>
