<?xml version='1.0' encoding='utf-8'?>
<svg xmlns="http://www.w3.org/2000/svg" width="1920" height="1080" viewBox="0 0 1920 1080" data-theme="dark">
  <style>
        @font-face {
            font-family: 'Inter';
            src: url('assets/fonts/Inter-Regular.ttf') format('truetype');
            font-weight: 400;
            font-style: normal;
            font-display: swap;
        }
        @font-face {
            font-family: 'Inter';
            src: url('assets/fonts/Inter-Bold.ttf') format('truetype');
            font-weight: 600;
            font-style: normal;
            font-display: swap;
        }
        @font-face {
            font-family: 'Inter';
            src: url('assets/fonts/Inter-Bold.ttf') format('truetype');
            font-weight: 800;
            font-style: normal;
            font-display: swap;
        }
        
:root {
    --background: #0f172a;
    --panel: #1e293b;
    --primary-text: #f1f5f9;
    --muted-text: #94a3b8;
    --inverse-text: #0f172a;
    --border: #334155;
    --shadow-color: #000000;
    --icon-pad-bg: #1e293b;
    --art-glow: #7dd3fc;
    --art-glow-opacity: 0.18;
    --art-sheen: #ffffff;
    --art-sheen-opacity: 0.18;
    --art-shadow: #000000;
    --art-shadow-opacity: 0.28;
    --art-muted-line: #64748b;
    --art-panel-tint: #1e293b;
    --font-family: 'Inter', 'Segoe UI', 'Kalam', Roboto, Helvetica, Arial, sans-serif;
    --radius-xl: 16px;
    --font-family-headline: 'Inter', 'Segoe UI', 'Kalam', Roboto, Helvetica, Arial, sans-serif;
    --font-family-body: 'Inter', 'Segoe UI', 'Kalam', Roboto, Helvetica, Arial, sans-serif;
    --font-heading: 'Inter', 'Segoe UI', 'Kalam', Roboto, Helvetica, Arial, sans-serif;
    --font-body: 'Inter', 'Segoe UI', 'Kalam', Roboto, Helvetica, Arial, sans-serif;
    --font-size-h1: 56px;
    --font-size-h2: 40px;
    --font-size-h3: 28px;
    --font-size-body: 24px;
    --font-size-caption: 18px;
    --secondary-text: var(--muted-text);
    --panel-border: var(--border);
    --font-weight-normal: 400;
    --font-weight-medium: 500;
    --font-weight-semibold: 600;
    --font-weight-bold: 700;
    --spacing-gutter-pct: 0.07;
    --spacing-top-pct: 0.15;
    --spacing-bottom-pct: 0.07;
    --spacing-title-y-pct: 0.055;
    --accent-1: #a5b4fc;
    --accent-2: #34d399;
    --accent-3: #f472b6;
    --accent-4: #fbbf24;
    --accent-5: #38bdf8;
    --accent-6: #c084fc;
    --accent-7: #f87171;
    --accent-8: #2dd4bf;
    --accent-9: #fb923c;
    --accent-10: #e879f9;
}
:root[data-theme="dark"] {
    --background: #0f172a;
    --panel: #1e293b;
    --primary-text: #f1f5f9;
    --muted-text: #94a3b8;
    --inverse-text: #0f172a;
    --border: #334155;
    --shadow-color: #000000;
    --icon-pad-bg: #1e293b;
    --art-glow: #7dd3fc;
    --art-glow-opacity: 0.18;
    --art-sheen: #ffffff;
    --art-sheen-opacity: 0.18;
    --art-shadow: #000000;
    --art-shadow-opacity: 0.28;
    --art-muted-line: #64748b;
    --art-panel-tint: #1e293b;
    --accent-1: #a5b4fc;
    --accent-2: #34d399;
    --accent-3: #f472b6;
    --accent-4: #fbbf24;
    --accent-5: #38bdf8;
    --accent-6: #c084fc;
    --accent-7: #f87171;
    --accent-8: #2dd4bf;
    --accent-9: #fb923c;
    --accent-10: #e879f9;
}
:root[data-theme="light"] {
    --background: #f8fafc;
    --panel: #ffffff;
    --primary-text: #0f172a;
    --muted-text: #64748b;
    --inverse-text: #ffffff;
    --border: #e2e8f0;
    --shadow-color: #000000;
    --icon-pad-bg: #1e293b;
    --art-glow: #0891b2;
    --art-glow-opacity: 0.10;
    --art-sheen: #ffffff;
    --art-sheen-opacity: 0.34;
    --art-shadow: #0f172a;
    --art-shadow-opacity: 0.14;
    --art-muted-line: #94a3b8;
    --art-panel-tint: #f1f5f9;
    --accent-1: #4f46e5;
    --accent-2: #059669;
    --accent-3: #db2777;
    --accent-4: #d97706;
    --accent-5: #0284c7;
    --accent-6: #7c3aed;
    --accent-7: #dc2626;
    --accent-8: #0d9488;
    --accent-9: #ea580c;
    --accent-10: #c026d3;
}</style>
  <rect x="0" y="0" width="1.92E+3" height="1.08E+3" fill="#252a34" stroke="none" id="programmatic_background"/>
  <line id="HEADER_DECOR" x1="960.0" x2="1080.0" y1="115.0" y2="115.0" stroke="var(--accent-1)" stroke-width="6" stroke-linecap="round"/>
  <defs>
    <pattern id="svg447b5ad3-napkin-hatch" patternUnits="userSpaceOnUse" width="12" height="12">
      <path d="M -3 12 L 12 -3 M 0 15 L 15 0" fill="none" stroke="var(--primary-text)" stroke-width="1" stroke-opacity="0.05"/>
    </pattern>
    <radialGradient id="svg447b5ad3-universal-edge-vignette" cx="50%" cy="50%" r="72%">
      <stop offset="0%" stop-color="var(--background)" stop-opacity="0"/>
      <stop offset="72%" stop-color="var(--background)" stop-opacity="0.12"/>
      <stop offset="100%" stop-color="var(--primary-text)" stop-opacity="0.08"/>
    </radialGradient>
    <linearGradient id="svg447b5ad3-universal-surface-sheen" x1="0%" y1="0%" x2="100%" y2="100%">
      <stop offset="0%" stop-color="var(--art-sheen)" stop-opacity="var(--art-sheen-opacity)"/>
      <stop offset="46%" stop-color="var(--art-sheen)" stop-opacity="0.035"/>
      <stop offset="100%" stop-color="var(--art-panel-tint)" stop-opacity="0.14"/>
    </linearGradient>
    <radialGradient id="svg447b5ad3-universal-icon-aura" cx="50%" cy="42%" r="64%">
      <stop offset="0%" stop-color="var(--art-glow)" stop-opacity="var(--art-glow-opacity)"/>
      <stop offset="100%" stop-color="var(--background)" stop-opacity="0"/>
    </radialGradient>
    <radialGradient id="svg447b5ad3-window-art-glow" cx="50%" cy="52%" r="68%">
      <stop offset="0%" stop-color="var(--inverse-text)" stop-opacity="0.14"/>
      <stop offset="100%" stop-color="var(--background)" stop-opacity="0"/>
    </radialGradient>
    <linearGradient id="svg447b5ad3-window-art-sheen" x1="16%" y1="0%" x2="86%" y2="100%">
      <stop offset="0%" stop-color="var(--inverse-text)" stop-opacity="0.22"/>
      <stop offset="52%" stop-color="var(--inverse-text)" stop-opacity="0.035"/>
      <stop offset="100%" stop-color="var(--background)" stop-opacity="0.14"/>
    </linearGradient>
    <filter id="svg447b5ad3-text-glow" x="-20%" y="-20%" width="140%" height="140%">
      <feDropShadow dx="0" dy="0" stdDeviation="2" flood-color="#000000" flood-opacity="0.4"/>
    </filter>
    <filter id="svg447b5ad3-shadow" x="-30%" y="-30%" width="160%" height="160%">
      <feDropShadow dx="0" dy="2" stdDeviation="3" flood-color="#000000" flood-opacity="0.08"/>
      <feDropShadow dx="0" dy="6" stdDeviation="10" flood-color="#000000" flood-opacity="0.12"/>
    </filter>
    <marker id="svg447b5ad3-arrowhead" markerWidth="10" markerHeight="7" refX="9" refY="3.5" orient="auto" markerUnits="strokeWidth">
      <polygon points="0 0, 10 3.5, 0 7" fill="var(--muted-text)" opacity="0.6"/>
    </marker>
  </defs>
  <rect width="100%" height="100%" fill="var(--background)" id="CANVAS_BG"/>
  <rect width="100%" height="100%" fill="url(#svg447b5ad3-napkin-hatch)"/>
  <ellipse id="WINDOW_ART_GLOW" cx="960" cy="600" rx="650" ry="340" fill="url(#svg447b5ad3-window-art-glow)" opacity="0.84"/>
  <rect id="UNIVERSAL_EDGE_VIGNETTE" width="100%" height="100%" fill="url(#svg447b5ad3-universal-edge-vignette)" opacity="0.62"/>
  <text id="TITLE" x="960.0" y="59" font-size="64" font-weight="700" fill="#f1f5f9" style="font-size: 60px; font-family: Inter, Segoe UI, Kalam, Roboto, Helvetica, Arial, sans-serif; font-weight: 700; letter-spacing:-1.2px;" text-anchor="middle" data-final-font-size="60">
    <tspan x="960.0" dy="68.00px">Cash-Landrum Helicopter Evidence Analysis</tspan>
  </text>
  <rect id="TITLE_FRAME" x="134" y="50" width="1652" height="100" fill="none"/>
  <path d="M 660 550 L 660 950 L 1260 950 L 1260 550 Q 1260 150 960 150 Q 660 150 660 550 Z" fill="none" stroke="var(--primary-text)" stroke-width="8"/>
  <g transform="translate(0, 0)">
    <g>
      <path id="ITEM_1_BG" d="M 960 550 L 960 150 Q 660 150 660 550 Z" fill="var(--accent-8)" stroke="var(--accent-1)" stroke-width="3" fill-opacity="0.4"/>
      <path id="WINDOW_ART_ITEM_SHEEN_1" d="M 960 550 L 960 150 Q 660 150 660 550 Z" fill="url(#svg447b5ad3-window-art-sheen)" opacity="0.62"/>
      <path d="M 750 400 L 450 400" fill="none" stroke="var(--accent-1)" stroke-width="2" stroke-dasharray="5 5"/>
      <circle cx="750" cy="400" r="5" fill="var(--accent-1)"/>
      <circle id="WINDOW_ART_ICON_AURA_1" cx="810.0" cy="350.0" r="72" fill="url(#svg447b5ad3-universal-icon-aura)" opacity="0.78"/>
      <circle id="ITEM_1_PAD" cx="810.0" cy="350.0" r="58" fill="var(--icon-pad-bg)" stroke="var(--primary-text)" opacity="0.9" fill-opacity="0.9" stroke-width="2"/>
      <circle id="ITEM_1_PAD_INNER" cx="810.0" cy="350.0" r="45.24" fill="var(--accent-8)" fill-opacity="0.22"/>
      <circle cx="810.0" cy="350.0" r="46.4" fill="none" stroke="var(--accent-1)" stroke-width="3" stroke-dasharray="6 4"/>
      <g id="ITEM_1_ICON" transform="translate(765.0, 305.0)" data-icon-size="90" stroke-dasharray="6 4">
        <g transform="translate(-4.073898305084748,-4.073898305084749) scale(4.089491525423729)" vector-effect="non-scaling-stroke" stroke-width="2.79" stroke-linecap="round" stroke-linejoin="round" stroke-opacity="1.0">
          <path d="M10 10h4" vector-effect="non-scaling-stroke" fill="none" stroke="#f1f5f9"/>
          <path d="M19 7V4a1 1 0 0 0-1-1h-2a1 1 0 0 0-1 1v3" vector-effect="non-scaling-stroke" fill="none" stroke="#f1f5f9"/>
          <path d="M20 21a2 2 0 0 0 2-2v-3.851c0-1.39-2-2.962-2-4.829V8a1 1 0 0 0-1-1h-4a1 1 0 0 0-1 1v11a2 2 0 0 0 2 2z" vector-effect="non-scaling-stroke" fill="none" stroke="#f1f5f9"/>
          <path d="M 22 16 L 2 16" vector-effect="non-scaling-stroke" fill="none" stroke="#f1f5f9"/>
          <path d="M4 21a2 2 0 0 1-2-2v-3.851c0-1.39 2-2.962 2-4.829V8a1 1 0 0 1 1-1h4a1 1 0 0 1 1 1v11a2 2 0 0 1-2 2z" vector-effect="non-scaling-stroke" fill="none" stroke="#f1f5f9"/>
          <path d="M9 7V4a1 1 0 0 0-1-1H6a1 1 0 0 0-1 1v3" vector-effect="non-scaling-stroke" fill="none" stroke="#f1f5f9"/>
        </g>
      </g>
      <g transform="translate(100, 350)">
        <text id="ITEM_1_HEAD" text-anchor="end" font-weight="bold" font-size="28" fill="var(--primary-text)" x="340.0" y="-30.0" data-bg-id="ITEM_1_BG" fill-opacity="1.0" stroke="none" style="font-size: 30px; font-family: Inter, Segoe UI, Kalam, Roboto, Helvetica, Arial, sans-serif; font-weight: 700; letter-spacing:-0.4px;" data-final-font-size="30">
          <tspan x="340.0" dy="28.25px">Witness Specificity</tspan>
        </text>
        <rect id="ITEM_1_HEAD_FRAME" x="0" y="-30" width="340" height="40" fill="none"/>
        <text id="ITEM_1_BODY" text-anchor="end" font-size="20" fill="var(--primary-text)" opacity="0.9" x="330.0" y="15.0" data-bg-id="ITEM_1_BG" style="font-size: 26px; font-family: Inter, Segoe UI, Kalam, Roboto, Helvetica, Arial, sans-serif; font-weight: 400;" data-final-font-size="26">
          <tspan x="330.0" dy="26.86px">Observers identified</tspan>
          <tspan x="330.0" dy="29.90px">distinctive tandem-rotor</tspan>
          <tspan x="330.0" dy="29.90px">helicopter silhouettes</tspan>
        </text>
        <rect id="ITEM_1_BODY_FRAME" x="-50" y="15.0" width="380" height="120" fill="none"/>
      </g>
    </g>
    <g>
      <path id="ITEM_2_BG" d="M 960 550 L 1260 550 Q 1260 150 960 150 Z" fill="var(--accent-9)" stroke="var(--accent-2)" stroke-width="3" fill-opacity="0.4"/>
      <path id="WINDOW_ART_ITEM_SHEEN_2" d="M 960 550 L 1260 550 Q 1260 150 960 150 Z" fill="url(#svg447b5ad3-window-art-sheen)" opacity="0.62"/>
      <path d="M 1160 400 L 1470 400" fill="none" stroke="var(--accent-2)" stroke-width="2" stroke-dasharray="5 5"/>
      <circle cx="1160" cy="400" r="5" fill="var(--accent-2)"/>
      <circle id="WINDOW_ART_ICON_AURA_2" cx="1110.0" cy="350.0" r="72" fill="url(#svg447b5ad3-universal-icon-aura)" opacity="0.78"/>
      <circle id="ITEM_2_PAD" cx="1110.0" cy="350.0" r="58" fill="var(--icon-pad-bg)" stroke="var(--primary-text)" opacity="0.9" fill-opacity="0.9" stroke-width="2"/>
      <circle id="ITEM_2_PAD_INNER" cx="1110.0" cy="350.0" r="45.24" fill="var(--accent-9)" fill-opacity="0.22"/>
      <circle cx="1110.0" cy="350.0" r="46.4" fill="none" stroke="var(--accent-1)" stroke-width="3" stroke-dasharray="6 4"/>
      <g id="ITEM_2_ICON" transform="translate(1065.0, 305.0)" data-icon-size="90" stroke-dasharray="6 4">
        <g transform="translate(-6.7028571428571455,-22.86000000000001) scale(3.2314285714285718)">
          <path d="M27.8 30H4.2C3 30 2 29 2 27.8V14.2C2 13 3 12 4.2 12H27.7C29 12 30 13 30 14.2V27.7C30 29 29 30 27.8 30Z" fill="#26C9FC"/>
          <path d="M26.4046 28H14.5954C14.2977 28 14 27.8065 14 27.4194V25.5806C14 25.2903 14.1985 25 14.5954 25H26.4046C26.7023 25 27 25.1935 27 25.5806V27.4194C27 27.7097 26.7023 28 26.4046 28Z" fill="#F4F4F4"/>
          <path d="M11.0244 23H8H4.97561C4.5834 23 4.19119 23.7414 4.05253 23.3282C4.01873 23.2275 4 23.1176 4 23V15C4 14.5 4.39024 14 4.97561 14H11.0244C11.5122 14 12 14.4 12 15V23C12 23.0723 11.9943 23.1417 11.9833 23.2078C11.9031 23.6906 11.5392 23 11.0244 23Z" fill="white"/>
          <path d="M14.5 15C14.2239 15 14 15.2239 14 15.5C14 15.7761 14.2239 16 14.5 16H26.5C26.7762 16 27 15.7761 27 15.5C27 15.2239 26.7762 15 26.5 15H14.5ZM14 18.5C14 18.2239 14.2239 18 14.5 18H26.5C26.7762 18 27 18.2239 27 18.5C27 18.7761 26.7762 19 26.5 19H14.5C14.2239 19 14 18.7761 14 18.5ZM14 21.5C14 21.2239 14.2239 21 14.5 21H26.5C26.7762 21 27 21.2239 27 21.5C27 21.7761 26.7762 22 26.5 22H14.5C14.2239 22 14 21.7761 14 21.5Z" fill="#0074BA"/>
          <path d="M8.47558 15H7.49655C6.41961 15 5.63639 15.9204 5.73429 17.0454L5.77487 17.5752C5.47114 17.6487 5.24476 17.9331 5.24476 18.2727C5.24476 18.6516 5.52646 18.9617 5.88298 18.9869L5.9301 19.6022C6.00705 20.2453 6.4469 20.8252 7.05949 21.044C5.78604 21.3272 4.69582 22.1278 4 23.225C4.11056 23.6986 4.53077 24 4.95098 24H11.021C11.6084 24 12 23.5909 12 22.9773C11.2826 21.9798 10.2241 21.2648 9.00547 21.0223C9.56938 20.8044 9.96902 20.2886 10.042 19.6022L10.0891 18.9869C10.4457 18.9617 10.7273 18.6515 10.7273 18.2727C10.7273 17.9331 10.501 17.6487 10.1973 17.5752L10.2378 17.0454C10.3357 15.9204 9.45461 15 8.47558 15Z" fill="#321B41"/>
          <path d="M15.5 27H25.5C25.7 27 26 26.8 26 26.5C26 26.2 25.8 26 25.5 26H15.5C15.2 26 15 26.2 15 26.5C15 26.8 15.2 27 15.5 27Z" fill="#321B41"/>
        </g>
      </g>
      <g transform="translate(1490, 350)">
        <text id="ITEM_2_HEAD" text-anchor="start" font-weight="bold" font-size="28" fill="var(--primary-text)" x="-10.0" y="-30.0" data-bg-id="ITEM_2_BG" fill-opacity="1.0" stroke="none" style="font-size: 30px; font-family: Inter, Segoe UI, Kalam, Roboto, Helvetica, Arial, sans-serif; font-weight: 700; letter-spacing:-0.4px;" data-final-font-size="30">
          <tspan x="-10.0" dy="28.25px">Identification Limits</tspan>
        </text>
        <rect id="ITEM_2_HEAD_FRAME" x="-10" y="-30" width="340" height="40" fill="none"/>
        <text id="ITEM_2_BODY" text-anchor="start" font-size="20" fill="var(--primary-text)" opacity="0.9" x="0.0" y="15.0" data-bg-id="ITEM_2_BG" style="font-size: 26px; font-family: Inter, Segoe UI, Kalam, Roboto, Helvetica, Arial, sans-serif; font-weight: 400;" data-final-font-size="26">
          <tspan x="0.0" dy="26.86px">Visual recognition does not</tspan>
          <tspan x="0.0" dy="29.90px">confirm specific aircraft</tspan>
          <tspan x="0.0" dy="29.90px">ownership</tspan>
        </text>
        <rect id="ITEM_2_BODY_FRAME" x="0" y="15.0" width="380" height="120" fill="none"/>
      </g>
    </g>
    <g>
      <path id="ITEM_3_BG" d="M 660 550 L 960 550 L 960 950 L 660 950 Z" fill="var(--accent-10)" stroke="var(--accent-3)" stroke-width="3" fill-opacity="0.4"/>
      <path id="WINDOW_ART_ITEM_SHEEN_3" d="M 660 550 L 960 550 L 960 950 L 660 950 Z" fill="url(#svg447b5ad3-window-art-sheen)" opacity="0.62"/>
      <path d="M 720 750 L 450 750" fill="none" stroke="var(--accent-3)" stroke-width="2" stroke-dasharray="5 5"/>
      <circle cx="720" cy="750" r="5" fill="var(--accent-3)"/>
      <circle id="WINDOW_ART_ICON_AURA_3" cx="810.0" cy="750.0" r="72" fill="url(#svg447b5ad3-universal-icon-aura)" opacity="0.78"/>
      <circle id="ITEM_3_PAD" cx="810.0" cy="750.0" r="58" fill="var(--icon-pad-bg)" stroke="var(--primary-text)" opacity="0.9" fill-opacity="0.9" stroke-width="2"/>
      <circle id="ITEM_3_PAD_INNER" cx="810.0" cy="750.0" r="45.24" fill="var(--accent-10)" fill-opacity="0.22"/>
      <circle cx="810.0" cy="750.0" r="46.4" fill="none" stroke="var(--accent-2)" stroke-width="3" stroke-dasharray="6 4"/>
      <g id="ITEM_3_ICON" transform="translate(765.0, 705.0)" data-icon-size="90" stroke-dasharray="6 4">
        <g transform="translate(-6.7028571428571455,-9.934285714285723) scale(3.2314285714285718)">
          <path d="M15.385 7.39062L12.9075 4.915C12.3219 4.32875 11.5275 4 10.6987 4H4.125C2.95125 4 2 4.95125 2 6.125V13.5H12.985H30V10.1375C30 8.96375 29.0488 8.0125 27.875 8.0125H16.8875C16.3237 8.0125 15.7838 7.78875 15.385 7.39062Z" fill="#FFB02E"/>
          <path d="M27.875 30H4.125C2.95125 30 2 29.0545 2 27.8878V13.1122C2 11.9455 2.95125 11 4.125 11H27.875C29.0488 11 30 11.9455 30 13.1122V27.8878C30 29.0545 29.0488 30 27.875 30Z" fill="#FCD53F"/>
        </g>
      </g>
      <g transform="translate(100, 700)">
        <text id="ITEM_3_HEAD" text-anchor="end" font-weight="bold" font-size="28" fill="var(--primary-text)" x="340.0" y="-30.0" data-bg-id="ITEM_3_BG" fill-opacity="1.0" stroke="none" style="font-size: 29px; font-family: Inter, Segoe UI, Kalam, Roboto, Helvetica, Arial, sans-serif; font-weight: 700; letter-spacing:-0.4px;" data-final-font-size="29">
          <tspan x="340.0" dy="27.98px">Official Inquiry Results</tspan>
        </text>
        <rect id="ITEM_3_HEAD_FRAME" x="0" y="-30" width="340" height="40" fill="none"/>
        <text id="ITEM_3_BODY" text-anchor="end" font-size="20" fill="var(--primary-text)" opacity="0.9" x="330.0" y="15.0" data-bg-id="ITEM_3_BG" style="font-size: 26px; font-family: Inter, Segoe UI, Kalam, Roboto, Helvetica, Arial, sans-serif; font-weight: 400;" data-final-font-size="26">
          <tspan x="330.0" dy="32.84px">Army investigators found no</tspan>
          <tspan x="330.0" dy="29.90px">military flight records nearby</tspan>
        </text>
        <rect id="ITEM_3_BODY_FRAME" x="-50" y="15.0" width="380" height="120" fill="none"/>
      </g>
    </g>
    <g>
      <path id="ITEM_4_BG" d="M 960 550 L 1260 550 L 1260 950 L 960 950 Z" fill="var(--accent-1)" stroke="var(--accent-4)" stroke-width="3" fill-opacity="0.4"/>
      <path id="WINDOW_ART_ITEM_SHEEN_4" d="M 960 550 L 1260 550 L 1260 950 L 960 950 Z" fill="url(#svg447b5ad3-window-art-sheen)" opacity="0.62"/>
      <path d="M 1200 750 L 1470 750" fill="none" stroke="var(--accent-4)" stroke-width="2" stroke-dasharray="5 5"/>
      <circle cx="1200" cy="750" r="5" fill="var(--accent-4)"/>
      <circle id="WINDOW_ART_ICON_AURA_4" cx="1110.0" cy="750.0" r="72" fill="url(#svg447b5ad3-universal-icon-aura)" opacity="0.78"/>
      <circle id="ITEM_4_PAD" cx="1110.0" cy="750.0" r="58" fill="var(--icon-pad-bg)" stroke="var(--primary-text)" opacity="0.9" fill-opacity="0.9" stroke-width="2"/>
      <circle id="ITEM_4_PAD_INNER" cx="1110.0" cy="750.0" r="45.24" fill="var(--accent-1)" fill-opacity="0.22"/>
      <circle cx="1110.0" cy="750.0" r="46.4" fill="none" stroke="var(--accent-3)" stroke-width="3" stroke-dasharray="6 4"/>
      <g id="ITEM_4_ICON" transform="translate(1065.0, 705.0)" data-icon-size="90" stroke-dasharray="6 4">
        <g transform="translate(-10.68000000000001,-10.68000000000001) scale(4.640000000000001)" vector-effect="non-scaling-stroke" stroke-width="2.79" stroke-linecap="round" stroke-linejoin="round" stroke-opacity="1.0">
          <path d="M6 20H3V6L12 4L21 6V20H18M6 20H18M6 20V16M18 20V16M6 12V8L18 8V12M6 12L18 12M6 12V16M18 12V16M6 16H18" stroke="#f1f5f9" vector-effect="non-scaling-stroke" fill="none"/>
        </g>
      </g>
      <g transform="translate(1490, 700)">
        <text id="ITEM_4_HEAD" text-anchor="start" font-weight="bold" font-size="28" fill="var(--primary-text)" x="-10.0" y="-30.0" data-bg-id="ITEM_4_BG" fill-opacity="1.0" stroke="none" style="font-size: 30px; font-family: Inter, Segoe UI, Kalam, Roboto, Helvetica, Arial, sans-serif; font-weight: 700; letter-spacing:-0.4px;" data-final-font-size="30">
          <tspan x="-10.0" dy="28.25px">Operational Inference</tspan>
        </text>
        <rect id="ITEM_4_HEAD_FRAME" x="-10" y="-30" width="340" height="40" fill="none"/>
        <text id="ITEM_4_BODY" text-anchor="start" font-size="20" fill="var(--primary-text)" opacity="0.9" x="0.0" y="15.0" data-bg-id="ITEM_4_BG" style="font-size: 26px; font-family: Inter, Segoe UI, Kalam, Roboto, Helvetica, Arial, sans-serif; font-weight: 400;" data-final-font-size="26">
          <tspan x="0.0" dy="26.86px">Descriptions suggest heavy-</tspan>
          <tspan x="0.0" dy="29.90px">lift military style</tspan>
          <tspan x="0.0" dy="29.90px">operations occurred</tspan>
        </text>
        <rect id="ITEM_4_BODY_FRAME" x="0" y="15.0" width="380" height="120" fill="none"/>
      </g>
    </g>
  </g>
</svg>
