<?xml version='1.0' encoding='utf-8'?>
<svg xmlns="http://www.w3.org/2000/svg" width="1920" height="1080" viewBox="0 0 1920 1080" data-theme="dark">
  <style>
        @font-face {
            font-family: 'Inter';
            src: url('assets/fonts/Inter-Regular.ttf') format('truetype');
            font-weight: 400;
            font-style: normal;
            font-display: swap;
        }
        @font-face {
            font-family: 'Inter';
            src: url('assets/fonts/Inter-Bold.ttf') format('truetype');
            font-weight: 600;
            font-style: normal;
            font-display: swap;
        }
        @font-face {
            font-family: 'Inter';
            src: url('assets/fonts/Inter-Bold.ttf') format('truetype');
            font-weight: 800;
            font-style: normal;
            font-display: swap;
        }
        
:root {
    --background: #0f172a;
    --panel: #1e293b;
    --primary-text: #f1f5f9;
    --muted-text: #94a3b8;
    --inverse-text: #0f172a;
    --border: #334155;
    --shadow-color: #000000;
    --icon-pad-bg: #1e293b;
    --art-glow: #7dd3fc;
    --art-glow-opacity: 0.18;
    --art-sheen: #ffffff;
    --art-sheen-opacity: 0.18;
    --art-shadow: #000000;
    --art-shadow-opacity: 0.28;
    --art-muted-line: #64748b;
    --art-panel-tint: #1e293b;
    --font-family: 'Inter', 'Segoe UI', 'Kalam', Roboto, Helvetica, Arial, sans-serif;
    --radius-xl: 16px;
    --font-family-headline: 'Inter', 'Segoe UI', 'Kalam', Roboto, Helvetica, Arial, sans-serif;
    --font-family-body: 'Inter', 'Segoe UI', 'Kalam', Roboto, Helvetica, Arial, sans-serif;
    --font-heading: 'Inter', 'Segoe UI', 'Kalam', Roboto, Helvetica, Arial, sans-serif;
    --font-body: 'Inter', 'Segoe UI', 'Kalam', Roboto, Helvetica, Arial, sans-serif;
    --font-size-h1: 56px;
    --font-size-h2: 40px;
    --font-size-h3: 28px;
    --font-size-body: 24px;
    --font-size-caption: 18px;
    --secondary-text: var(--muted-text);
    --panel-border: var(--border);
    --font-weight-normal: 400;
    --font-weight-medium: 500;
    --font-weight-semibold: 600;
    --font-weight-bold: 700;
    --spacing-gutter-pct: 0.07;
    --spacing-top-pct: 0.15;
    --spacing-bottom-pct: 0.07;
    --spacing-title-y-pct: 0.055;
    --accent-1: #22d3ee;
    --accent-2: #f472b6;
    --accent-3: #facc15;
    --accent-4: #a3e635;
    --accent-5: #fb923c;
    --accent-6: #c084fc;
}
:root[data-theme="dark"] {
    --background: #0f172a;
    --panel: #1e293b;
    --primary-text: #f1f5f9;
    --muted-text: #94a3b8;
    --inverse-text: #0f172a;
    --border: #334155;
    --shadow-color: #000000;
    --icon-pad-bg: #1e293b;
    --art-glow: #7dd3fc;
    --art-glow-opacity: 0.18;
    --art-sheen: #ffffff;
    --art-sheen-opacity: 0.18;
    --art-shadow: #000000;
    --art-shadow-opacity: 0.28;
    --art-muted-line: #64748b;
    --art-panel-tint: #1e293b;
    --accent-1: #22d3ee;
    --accent-2: #f472b6;
    --accent-3: #facc15;
    --accent-4: #a3e635;
    --accent-5: #fb923c;
    --accent-6: #c084fc;
}
:root[data-theme="light"] {
    --background: #f8fafc;
    --panel: #ffffff;
    --primary-text: #0f172a;
    --muted-text: #64748b;
    --inverse-text: #ffffff;
    --border: #e2e8f0;
    --shadow-color: #000000;
    --icon-pad-bg: #1e293b;
    --art-glow: #0891b2;
    --art-glow-opacity: 0.10;
    --art-sheen: #ffffff;
    --art-sheen-opacity: 0.34;
    --art-shadow: #0f172a;
    --art-shadow-opacity: 0.14;
    --art-muted-line: #94a3b8;
    --art-panel-tint: #f1f5f9;
    --accent-1: #0891b2;
    --accent-2: #db2777;
    --accent-3: #ca8a04;
    --accent-4: #65a30d;
    --accent-5: #ea580c;
    --accent-6: #9333ea;
}</style>
  <rect x="0" y="0" width="1.92E+3" height="1.08E+3" fill="#252a34" stroke="none" id="programmatic_background"/>
  <line id="HEADER_DECOR" x1="960.0" x2="1080.0" y1="111.0" y2="111.0" stroke="var(--accent-1)" stroke-width="6" stroke-linecap="round"/>
  <defs>
    <pattern id="svg62c456d0-napkin-hatch" patternUnits="userSpaceOnUse" width="12" height="12">
      <path d="M -3 12 L 12 -3 M 0 15 L 15 0" fill="none" stroke="var(--primary-text)" stroke-width="1" stroke-opacity="0.045"/>
    </pattern>
    <filter id="svg62c456d0-shadow" x="-30%" y="-30%" width="160%" height="180%">
      <feDropShadow dx="0" dy="4" stdDeviation="8" flood-color="#000000" flood-opacity="0.14"/>
      <feDropShadow dx="0" dy="12" stdDeviation="18" flood-color="#000000" flood-opacity="0.12"/>
    </filter>
    <linearGradient id="svg62c456d0-routeGlow" x1="0%" y1="0%" x2="100%" y2="0%">
      <stop offset="0%" stop-color="var(--accent-1)" stop-opacity="0.42"/>
      <stop offset="100%" stop-color="var(--accent-6)" stop-opacity="0.18"/>
    </linearGradient>
    <radialGradient id="svg62c456d0-universal-edge-vignette" cx="50%" cy="50%" r="72%">
      <stop offset="0%" stop-color="var(--background)" stop-opacity="0"/>
      <stop offset="72%" stop-color="var(--background)" stop-opacity="0.12"/>
      <stop offset="100%" stop-color="var(--primary-text)" stop-opacity="0.08"/>
    </radialGradient>
    <linearGradient id="svg62c456d0-universal-surface-sheen" x1="0%" y1="0%" x2="100%" y2="100%">
      <stop offset="0%" stop-color="var(--art-sheen)" stop-opacity="var(--art-sheen-opacity)"/>
      <stop offset="46%" stop-color="var(--art-sheen)" stop-opacity="0.035"/>
      <stop offset="100%" stop-color="var(--art-panel-tint)" stop-opacity="0.14"/>
    </linearGradient>
    <radialGradient id="svg62c456d0-universal-icon-aura" cx="50%" cy="42%" r="64%">
      <stop offset="0%" stop-color="var(--art-glow)" stop-opacity="var(--art-glow-opacity)"/>
      <stop offset="100%" stop-color="var(--background)" stop-opacity="0"/>
    </radialGradient>
    <linearGradient id="svg62c456d0-train-metal-sheen" x1="0%" y1="0%" x2="0%" y2="100%">
      <stop offset="0%" stop-color="var(--inverse-text)" stop-opacity="0.24"/>
      <stop offset="46%" stop-color="var(--inverse-text)" stop-opacity="0.06"/>
      <stop offset="100%" stop-color="var(--background)" stop-opacity="0.18"/>
    </linearGradient>
    <linearGradient id="svg62c456d0-train-window-glass" x1="0%" y1="0%" x2="100%" y2="100%">
      <stop offset="0%" stop-color="var(--inverse-text)" stop-opacity="0.92"/>
      <stop offset="100%" stop-color="var(--accent-2)" stop-opacity="0.24"/>
    </linearGradient>
    <filter id="svg62c456d0-text-glow" x="-20%" y="-20%" width="140%" height="140%">
      <feDropShadow dx="0" dy="0" stdDeviation="2" flood-color="#000000" flood-opacity="0.4"/>
    </filter>
    <marker id="svg62c456d0-arrowhead" markerWidth="10" markerHeight="7" refX="9" refY="3.5" orient="auto" markerUnits="strokeWidth">
      <polygon points="0 0, 10 3.5, 0 7" fill="var(--muted-text)" opacity="0.6"/>
    </marker>
  </defs>
  <rect width="100%" height="100%" fill="var(--background)" id="CANVAS_BG"/>
  <rect width="100%" height="100%" fill="url(#svg62c456d0-napkin-hatch)"/>
  <rect id="UNIVERSAL_EDGE_VIGNETTE" width="100%" height="100%" fill="url(#svg62c456d0-universal-edge-vignette)" opacity="0.62"/>
  <circle cx="250" cy="220" r="170" fill="var(--accent-1)" opacity="0.05"/>
  <circle cx="1680" cy="230" r="210" fill="var(--accent-5)" opacity="0.04"/>
  <text id="TITLE" x="960.0" y="59" text-anchor="middle" font-weight="700" font-size="54" fill="#f1f5f9" style="font-size: 60px; font-family: Inter, Segoe UI, Kalam, Roboto, Helvetica, Arial, sans-serif; font-weight: 700; letter-spacing:-1.2px;" data-final-font-size="60">
    <tspan x="960.0" dy="68.00px">Cash–Landrum Litigation Legal Sequence</tspan>
  </text>
  <rect id="TITLE_FRAME" x="160" y="36" width="1600" height="86" fill="none"/>
  <path d="M 340 138 L 1580 138" stroke="var(--muted-text)" stroke-width="2" opacity="0.34"/>
  <g opacity="0.36">
    <line x1="140" y1="434" x2="158" y2="476" stroke="var(--muted-text)" stroke-width="10" stroke-linecap="round" opacity="0.22"/>
    <line x1="232" y1="434" x2="250" y2="476" stroke="var(--muted-text)" stroke-width="10" stroke-linecap="round" opacity="0.22"/>
    <line x1="324" y1="434" x2="342" y2="476" stroke="var(--muted-text)" stroke-width="10" stroke-linecap="round" opacity="0.22"/>
    <line x1="416" y1="434" x2="434" y2="476" stroke="var(--muted-text)" stroke-width="10" stroke-linecap="round" opacity="0.22"/>
    <line x1="508" y1="434" x2="526" y2="476" stroke="var(--muted-text)" stroke-width="10" stroke-linecap="round" opacity="0.22"/>
    <line x1="600" y1="434" x2="618" y2="476" stroke="var(--muted-text)" stroke-width="10" stroke-linecap="round" opacity="0.22"/>
    <line x1="692" y1="434" x2="710" y2="476" stroke="var(--muted-text)" stroke-width="10" stroke-linecap="round" opacity="0.22"/>
    <line x1="784" y1="434" x2="802" y2="476" stroke="var(--muted-text)" stroke-width="10" stroke-linecap="round" opacity="0.22"/>
    <line x1="876" y1="434" x2="894" y2="476" stroke="var(--muted-text)" stroke-width="10" stroke-linecap="round" opacity="0.22"/>
    <line x1="968" y1="434" x2="986" y2="476" stroke="var(--muted-text)" stroke-width="10" stroke-linecap="round" opacity="0.22"/>
    <line x1="1060" y1="434" x2="1078" y2="476" stroke="var(--muted-text)" stroke-width="10" stroke-linecap="round" opacity="0.22"/>
    <line x1="1152" y1="434" x2="1170" y2="476" stroke="var(--muted-text)" stroke-width="10" stroke-linecap="round" opacity="0.22"/>
    <line x1="1244" y1="434" x2="1262" y2="476" stroke="var(--muted-text)" stroke-width="10" stroke-linecap="round" opacity="0.22"/>
    <line x1="1336" y1="434" x2="1354" y2="476" stroke="var(--muted-text)" stroke-width="10" stroke-linecap="round" opacity="0.22"/>
    <line x1="1428" y1="434" x2="1446" y2="476" stroke="var(--muted-text)" stroke-width="10" stroke-linecap="round" opacity="0.22"/>
    <line x1="1520" y1="434" x2="1538" y2="476" stroke="var(--muted-text)" stroke-width="10" stroke-linecap="round" opacity="0.22"/>
    <line x1="1612" y1="434" x2="1630" y2="476" stroke="var(--muted-text)" stroke-width="10" stroke-linecap="round" opacity="0.22"/>
    <line x1="1704" y1="434" x2="1722" y2="476" stroke="var(--muted-text)" stroke-width="10" stroke-linecap="round" opacity="0.22"/>
    <line x1="1796" y1="434" x2="1814" y2="476" stroke="var(--muted-text)" stroke-width="10" stroke-linecap="round" opacity="0.22"/>
  </g>
  <path d="M 120 442 C 520 430 1400 430 1800 442" stroke="var(--muted-text)" stroke-width="18" stroke-linecap="round" opacity="0.28" fill="none"/>
  <path d="M 126 430 C 520 418 1400 418 1794 430" stroke="var(--primary-text)" stroke-width="2" stroke-linecap="round" opacity="0.18" fill="none"/>
  <path d="M 126 430 C 520 418 1400 418 1794 430" stroke="var(--primary-text)" stroke-width="2" stroke-linecap="round" opacity="0.18" fill="none"/>
  <path d="M 126 430 C 520 418 1400 418 1794 430" stroke="var(--primary-text)" stroke-width="2" stroke-linecap="round" opacity="0.18" fill="none"/>
  <path d="M 126 430 C 520 418 1400 418 1794 430" stroke="var(--primary-text)" stroke-width="2" stroke-linecap="round" opacity="0.18" fill="none"/>
  <path d="M 126 430 C 520 418 1400 418 1794 430" stroke="var(--primary-text)" stroke-width="2" stroke-linecap="round" opacity="0.18" fill="none"/>
  <path d="M 126 430 C 520 418 1400 418 1794 430" stroke="var(--primary-text)" stroke-width="2" stroke-linecap="round" opacity="0.18" fill="none"/>
  <path d="M 126 430 C 520 418 1400 418 1794 430" stroke="var(--primary-text)" stroke-width="2" stroke-linecap="round" opacity="0.18" fill="none"/>
  <path d="M 126 430 C 520 418 1400 418 1794 430" stroke="var(--primary-text)" stroke-width="2" stroke-linecap="round" opacity="0.18" fill="none"/>
  <path d="M 126 430 C 520 418 1400 418 1794 430" stroke="var(--primary-text)" stroke-width="2" stroke-linecap="round" opacity="0.18" fill="none"/>
  <path d="M 126 430 C 520 418 1400 418 1794 430" stroke="var(--primary-text)" stroke-width="2" stroke-linecap="round" opacity="0.18" fill="none"/>
  <path d="M 126 430 C 520 418 1400 418 1794 430" stroke="var(--primary-text)" stroke-width="2" stroke-linecap="round" opacity="0.18" fill="none"/>
  <path d="M 126 430 C 520 418 1400 418 1794 430" stroke="var(--primary-text)" stroke-width="2" stroke-linecap="round" opacity="0.18" fill="none"/>
  <path d="M 126 430 C 520 418 1400 418 1794 430" stroke="var(--primary-text)" stroke-width="2" stroke-linecap="round" opacity="0.18" fill="none"/>
  <path d="M 126 430 C 520 418 1400 418 1794 430" stroke="var(--primary-text)" stroke-width="2" stroke-linecap="round" opacity="0.18" fill="none"/>
  <path d="M 126 430 C 520 418 1400 418 1794 430" stroke="var(--primary-text)" stroke-width="2" stroke-linecap="round" opacity="0.18" fill="none"/>
  <path d="M 126 430 C 520 418 1400 418 1794 430" stroke="var(--primary-text)" stroke-width="2" stroke-linecap="round" opacity="0.18" fill="none"/>
  <path d="M 126 430 C 520 418 1400 418 1794 430" stroke="var(--primary-text)" stroke-width="2" stroke-linecap="round" opacity="0.18" fill="none"/>
  <path d="M 126 430 C 520 418 1400 418 1794 430" stroke="var(--primary-text)" stroke-width="2" stroke-linecap="round" opacity="0.18" fill="none"/>
  <path d="M 126 430 C 520 418 1400 418 1794 430" stroke="var(--primary-text)" stroke-width="2" stroke-linecap="round" opacity="0.18" fill="none"/>
  <path d="M 126 430 C 520 418 1400 418 1794 430" stroke="var(--primary-text)" stroke-width="2" stroke-linecap="round" opacity="0.18" fill="none"/>
  <path d="M 126 430 C 520 418 1400 418 1794 430" stroke="var(--primary-text)" stroke-width="2" stroke-linecap="round" opacity="0.18" fill="none"/>
  <path d="M 126 430 C 520 418 1400 418 1794 430" stroke="var(--primary-text)" stroke-width="2" stroke-linecap="round" opacity="0.18" fill="none"/>
  <path d="M 126 430 C 520 418 1400 418 1794 430" stroke="var(--primary-text)" stroke-width="2" stroke-linecap="round" opacity="0.18" fill="none"/>
  <path d="M 126 430 C 520 418 1400 418 1794 430" stroke="var(--primary-text)" stroke-width="2" stroke-linecap="round" opacity="0.18" fill="none"/>
  <path d="M 126 430 C 520 418 1400 418 1794 430" stroke="var(--primary-text)" stroke-width="2" stroke-linecap="round" opacity="0.18" fill="none"/>
  <path d="M 126 430 C 520 418 1400 418 1794 430" stroke="var(--primary-text)" stroke-width="2" stroke-linecap="round" opacity="0.18" fill="none"/>
  <path d="M 126 430 C 520 418 1400 418 1794 430" stroke="var(--primary-text)" stroke-width="2" stroke-linecap="round" opacity="0.18" fill="none"/>
  <path d="M 126 430 C 520 418 1400 418 1794 430" stroke="var(--primary-text)" stroke-width="2" stroke-linecap="round" opacity="0.18" fill="none"/>
  <path d="M 126 430 C 520 418 1400 418 1794 430" stroke="var(--primary-text)" stroke-width="2" stroke-linecap="round" opacity="0.18" fill="none"/>
  <path d="M 120 456 C 520 444 1400 444 1800 456" stroke="url(#svg62c456d0-routeGlow)" stroke-width="10" stroke-linecap="round" fill="none"/>
  <g transform="translate(110.000,0)">
    <line x1="203.500" y1="466" x2="203.500" y2="542" stroke="var(--muted-text)" stroke-width="3" opacity="0.42"/>
    <circle cx="203.500" cy="456.000" r="22" fill="var(--panel)" opacity="0.92" stroke="var(--accent-1)" stroke-width="4"/>
    <circle cx="203.500" cy="456.000" r="8" fill="var(--accent-1)"/>
    <line x1="203.500" y1="240" x2="203.500" y2="248" stroke="var(--primary-text)" stroke-opacity="0.18" stroke-width="4"/>
    <g filter="url(#svg62c456d0-shadow)">
      <rect x="17" y="196" width="373.000" height="48" rx="18" fill="var(--panel)" fill-opacity="0.98" stroke="var(--accent-1)" stroke-opacity="0.65" stroke-width="2"/>
      <rect x="0" y="560" width="407.000" height="296" rx="30" fill="var(--panel)" fill-opacity="0.96" stroke="var(--primary-text)" stroke-opacity="0.10" stroke-width="1.5" id="ITEM_1_TEXT_BG"/>
      <path d="M 175.500 560 Q 203.500 538 231.500 560" fill="var(--panel)" fill-opacity="0.96"/>
    </g>
    <path d="M 22 620 L 385.000 620" stroke="var(--accent-1)" stroke-width="3" stroke-linecap="round" opacity="0.72"/>
    <circle id="ITEM_1_PAD" cx="203.500" cy="548" r="42" fill="var(--icon-pad-bg)" stroke="var(--primary-text)" opacity="0.96" fill-opacity="0.9" stroke-width="2"/>
    <circle id="ITEM_1_PAD_INNER" cx="203.500" cy="548" r="32.76" fill="var(--accent-4)" fill-opacity="0.22"/>
    <circle cx="203.500" cy="548" r="34" fill="none" stroke="var(--accent-1)" stroke-width="3" stroke-dasharray="7 5" opacity="0.95"/>
    <g id="ITEM_1_ICON" transform="translate(173.500, 518)" data-icon-size="60">
      <g transform="translate(-5.5362711864406755,-5.5362711864406755) scale(2.9613559322033898)" vector-effect="non-scaling-stroke" stroke-width="2.43" stroke-linecap="round" stroke-linejoin="round" stroke-opacity="1.0">
        <path d="M3.85 8.62a4 4 0 0 1 4.78-4.77 4 4 0 0 1 6.74 0 4 4 0 0 1 4.78 4.78 4 4 0 0 1 0 6.74 4 4 0 0 1-4.77 4.78 4 4 0 0 1-6.75 0 4 4 0 0 1-4.78-4.77 4 4 0 0 1 0-6.76Z" vector-effect="non-scaling-stroke" fill="none" stroke="#f1f5f9"/>
      </g>
    </g>
    <g filter="url(#svg62c456d0-shadow)">
      <rect x="40.700" y="252" width="325.600" height="120" rx="24" fill="var(--accent-1)" stroke="var(--primary-text)" stroke-opacity="0.28" stroke-width="2.2"/>
      <path d="M 56.700 252 Q 203.500 234 350.300 252" fill="none" stroke="var(--primary-text)" stroke-opacity="0.30" stroke-width="3" stroke-linecap="round"/>
    </g>
    <rect x="56.700" y="270" width="293.600" height="14" rx="7" fill="var(--background)" fill-opacity="0.24"/>
    <rect x="61.700" y="306" width="85.200" height="34" rx="9" fill="url(#svg62c456d0-train-window-glass)" fill-opacity="0.92" stroke="var(--primary-text)" stroke-opacity="0.16" stroke-width="1"/>
    <rect x="160.900" y="306" width="85.200" height="34" rx="9" fill="url(#svg62c456d0-train-window-glass)" fill-opacity="0.92" stroke="var(--primary-text)" stroke-opacity="0.16" stroke-width="1"/>
    <rect x="260.100" y="306" width="85.200" height="34" rx="9" fill="url(#svg62c456d0-train-window-glass)" fill-opacity="0.92" stroke="var(--primary-text)" stroke-opacity="0.16" stroke-width="1"/>
    <circle cx="80.700" cy="384" r="13" fill="var(--background)" stroke="var(--primary-text)" stroke-opacity="0.20" stroke-width="1.5"/>
    <circle cx="326.300" cy="384" r="13" fill="var(--background)" stroke="var(--primary-text)" stroke-opacity="0.20" stroke-width="1.5"/>
    <line x1="80.700" y1="384" x2="326.300" y2="384" stroke="var(--primary-text)" stroke-opacity="0.22" stroke-width="4"/>
    <path d="M 6.700 352 L 40.700 352 L 40.700 372 L -15.300 372 Z" fill="var(--accent-1)" stroke="var(--primary-text)" stroke-opacity="0.26" stroke-width="2"/>
    <circle cx="12.700" cy="362" r="6" fill="var(--background)" opacity="0.9"/>
    <line x1="374.300" y1="333.600" x2="419.000" y2="333.600" stroke="var(--primary-text)" stroke-opacity="0.22" stroke-width="6" stroke-linecap="round"/>
    <text id="ITEM_1_HEAD" data-bg-id="ITEM_1_TEXT_BG" x="203.5" y="204.0" text-anchor="middle" font-weight="700" font-size="22" fill="var(--accent-4)" fill-opacity="1.0" stroke="none" style="font-size: 26px; font-family: Inter, Segoe UI, Kalam, Roboto, Helvetica, Arial, sans-serif; font-weight: 700; letter-spacing:-0.4px;" data-final-font-size="26">
      <tspan x="203.5" dy="20.85px">Identify Actor</tspan>
    </text>
    <rect id="ITEM_1_HEAD_FRAME" x="17" y="204" width="373.000" height="30" fill="none"/>
    <text id="ITEM_1_BODY" data-bg-id="ITEM_1_TEXT_BG" x="203.5" y="652.0" text-anchor="middle" font-size="16" fill="var(--primary-text)" style="font-size: 26px; font-family: Inter, Segoe UI, Kalam, Roboto, Helvetica, Arial, sans-serif; font-weight: 400;" data-final-font-size="26">
      <tspan x="203.5" dy="36.06px">Establish federal agency</tspan>
      <tspan x="203.5" dy="29.90px">or personnel responsible</tspan>
      <tspan x="203.5" dy="29.90px">for activity</tspan>
    </text>
    <rect id="ITEM_1_BODY_FRAME" x="22" y="652" width="363.000" height="166" fill="none"/>
  </g>
  <g transform="translate(541.000,0)">
    <line x1="203.500" y1="466" x2="203.500" y2="542" stroke="var(--muted-text)" stroke-width="3" opacity="0.42"/>
    <circle cx="203.500" cy="456.000" r="22" fill="var(--panel)" opacity="0.92" stroke="var(--accent-2)" stroke-width="4"/>
    <circle cx="203.500" cy="456.000" r="8" fill="var(--accent-2)"/>
    <line x1="203.500" y1="240" x2="203.500" y2="248" stroke="var(--primary-text)" stroke-opacity="0.18" stroke-width="4"/>
    <g filter="url(#svg62c456d0-shadow)">
      <rect x="17" y="196" width="373.000" height="48" rx="18" fill="var(--panel)" fill-opacity="0.98" stroke="var(--accent-2)" stroke-opacity="0.65" stroke-width="2"/>
      <rect x="0" y="560" width="407.000" height="296" rx="30" fill="var(--panel)" fill-opacity="0.96" stroke="var(--primary-text)" stroke-opacity="0.10" stroke-width="1.5" id="ITEM_2_TEXT_BG"/>
      <path d="M 175.500 560 Q 203.500 538 231.500 560" fill="var(--panel)" fill-opacity="0.96"/>
    </g>
    <path d="M 22 620 L 385.000 620" stroke="var(--accent-2)" stroke-width="3" stroke-linecap="round" opacity="0.72"/>
    <circle id="ITEM_2_PAD" cx="203.500" cy="548" r="42" fill="var(--icon-pad-bg)" stroke="var(--primary-text)" opacity="0.96" fill-opacity="0.9" stroke-width="2"/>
    <circle id="ITEM_2_PAD_INNER" cx="203.500" cy="548" r="32.76" fill="var(--accent-5)" fill-opacity="0.22"/>
    <circle cx="203.500" cy="548" r="34" fill="none" stroke="var(--accent-2)" stroke-width="3" stroke-dasharray="7 5" opacity="0.95"/>
    <g id="ITEM_2_ICON" transform="translate(173.500, 518)" data-icon-size="60">
      <g transform="translate(-7.439999999999998,-14.459999999999997) scale(2.34)">
        <path d="M14 12H9.97817C9.36099 12 8.77838 12.2849 8.39946 12.7721L2.84259 19.9167C2.29649 20.6188 2 21.4829 2 22.3724V25C2 26.1046 2.89543 27 4 27H14.3192C14.3192 19.7083 15.1183 13.0875 14 12Z" fill="#E6E6E6"/>
        <path d="M14.8896 8.8678C14.8462 8.91078 14.8041 8.95507 14.7633 9.00062C14.2886 9.5313 14 10.2319 14 11V21.0904H30V10C30 9.63485 29.9021 9.29256 29.7312 8.99791C29.7054 8.95343 29.678 8.91003 29.6489 8.8678H14.8896Z" fill="#F92F60"/>
        <path d="M17 8C16.1115 8 15.3132 8.38625 14.7639 9H29.7324C29.3866 8.4022 28.7403 8 28 8H17ZM30 21H14V27H28C29.1046 27 30 26.1046 30 25V21Z" fill="#D3D3D3"/>
        <path d="M12 26.5C12 28.433 10.433 30 8.5 30C6.567 30 5 28.433 5 26.5C5 24.567 6.567 23 8.5 23C10.433 23 12 24.567 12 26.5ZM27 26.5C27 28.433 25.433 30 23.5 30C21.567 30 20 28.433 20 26.5C20 24.567 21.567 23 23.5 23C25.433 23 27 24.567 27 26.5Z" fill="#433B6B"/>
        <path d="M10 26.5C10 27.3284 9.32843 28 8.5 28C7.67157 28 7 27.3284 7 26.5C7 25.6716 7.67157 25 8.5 25C9.32843 25 10 25.6716 10 26.5ZM25 26.5C25 27.3284 24.3284 28 23.5 28C22.6716 28 22 27.3284 22 26.5C22 25.6716 22.6716 25 23.5 25C24.3284 25 25 25.6716 25 26.5Z" fill="#F4F4F4"/>
        <path d="M22 12C21.4477 12 21 12.4477 21 13V14H20C19.4477 14 19 14.4477 19 15C19 15.5523 19.4477 16 20 16H21V17C21 17.5523 21.4477 18 22 18C22.5523 18 23 17.5523 23 17V16H24C24.5523 16 25 15.5523 25 15C25 14.4477 24.5523 14 24 14H23V13C23 12.4477 22.5523 12 22 12Z" fill="#F4F4F4"/>
        <path d="M3 25L2 25V22.3724C2 21.9011 2.08326 21.4368 2.24282 21H3C3.55228 21 4 21.4477 4 22V24C4 24.5523 3.55228 25 3 25ZM29.5 22C28.6716 22 28 22.6716 28 23.5C28 24.3284 28.6716 25 29.5 25H30V22H29.5Z" fill="#FF822D"/>
        <path d="M4.33331 18H11C12.1045 18 13 17.1046 13 16V14C13 13.4477 12.5523 13 12 13H8.2222L4.33331 18Z" fill="#26C9FC"/>
        <path d="M10 12C10 11.4477 10.4477 11 11 11H13C13.5523 11 14 11.4477 14 12V12H10V12Z" fill="#D3D3D3"/>
        <path d="M11 11C11 10.4477 11.4477 10 12 10V10C12.5523 10 13 10.4477 13 11V11H11V11Z" fill="#F8312F"/>
      </g>
    </g>
    <g filter="url(#svg62c456d0-shadow)">
      <rect x="40.700" y="252" width="325.600" height="120" rx="24" fill="var(--accent-2)" stroke="var(--primary-text)" stroke-opacity="0.28" stroke-width="2.2"/>
      <path d="M 56.700 252 Q 203.500 234 350.300 252" fill="none" stroke="var(--primary-text)" stroke-opacity="0.30" stroke-width="3" stroke-linecap="round"/>
    </g>
    <rect x="56.700" y="270" width="293.600" height="14" rx="7" fill="var(--background)" fill-opacity="0.24"/>
    <rect x="61.700" y="306" width="85.200" height="34" rx="9" fill="url(#svg62c456d0-train-window-glass)" fill-opacity="0.92" stroke="var(--primary-text)" stroke-opacity="0.16" stroke-width="1"/>
    <rect x="160.900" y="306" width="85.200" height="34" rx="9" fill="url(#svg62c456d0-train-window-glass)" fill-opacity="0.92" stroke="var(--primary-text)" stroke-opacity="0.16" stroke-width="1"/>
    <rect x="260.100" y="306" width="85.200" height="34" rx="9" fill="url(#svg62c456d0-train-window-glass)" fill-opacity="0.92" stroke="var(--primary-text)" stroke-opacity="0.16" stroke-width="1"/>
    <circle cx="80.700" cy="384" r="13" fill="var(--background)" stroke="var(--primary-text)" stroke-opacity="0.20" stroke-width="1.5"/>
    <circle cx="326.300" cy="384" r="13" fill="var(--background)" stroke="var(--primary-text)" stroke-opacity="0.20" stroke-width="1.5"/>
    <line x1="80.700" y1="384" x2="326.300" y2="384" stroke="var(--primary-text)" stroke-opacity="0.22" stroke-width="4"/>
    <line x1="374.300" y1="333.600" x2="419.000" y2="333.600" stroke="var(--primary-text)" stroke-opacity="0.22" stroke-width="6" stroke-linecap="round"/>
    <text id="ITEM_2_HEAD" data-bg-id="ITEM_2_TEXT_BG" x="203.5" y="204.0" text-anchor="middle" font-weight="700" font-size="22" fill="var(--accent-5)" fill-opacity="1.0" stroke="none" style="font-size: 26px; font-family: Inter, Segoe UI, Kalam, Roboto, Helvetica, Arial, sans-serif; font-weight: 700; letter-spacing:-0.4px;" data-final-font-size="26">
      <tspan x="203.5" dy="20.85px">Prove Harm</tspan>
    </text>
    <rect id="ITEM_2_HEAD_FRAME" x="17" y="204" width="373.000" height="30" fill="none"/>
    <text id="ITEM_2_BODY" data-bg-id="ITEM_2_TEXT_BG" x="203.5" y="652.0" text-anchor="middle" font-size="16" fill="var(--primary-text)" style="font-size: 26px; font-family: Inter, Segoe UI, Kalam, Roboto, Helvetica, Arial, sans-serif; font-weight: 400;" data-final-font-size="26">
      <tspan x="203.5" dy="36.06px">Verify that the activity</tspan>
      <tspan x="203.5" dy="29.90px">caused specific</tspan>
      <tspan x="203.5" dy="29.90px">physical harm</tspan>
    </text>
    <rect id="ITEM_2_BODY_FRAME" x="22" y="652" width="363.000" height="166" fill="none"/>
  </g>
  <g transform="translate(972.000,0)">
    <line x1="203.500" y1="466" x2="203.500" y2="542" stroke="var(--muted-text)" stroke-width="3" opacity="0.42"/>
    <circle cx="203.500" cy="456.000" r="22" fill="var(--panel)" opacity="0.92" stroke="var(--accent-3)" stroke-width="4"/>
    <circle cx="203.500" cy="456.000" r="8" fill="var(--accent-3)"/>
    <line x1="203.500" y1="240" x2="203.500" y2="248" stroke="var(--primary-text)" stroke-opacity="0.18" stroke-width="4"/>
    <g filter="url(#svg62c456d0-shadow)">
      <rect x="17" y="196" width="373.000" height="48" rx="18" fill="var(--panel)" fill-opacity="0.98" stroke="var(--accent-3)" stroke-opacity="0.65" stroke-width="2"/>
      <rect x="0" y="560" width="407.000" height="296" rx="30" fill="var(--panel)" fill-opacity="0.96" stroke="var(--primary-text)" stroke-opacity="0.10" stroke-width="1.5" id="ITEM_3_TEXT_BG"/>
      <path d="M 175.500 560 Q 203.500 538 231.500 560" fill="var(--panel)" fill-opacity="0.96"/>
    </g>
    <path d="M 22 620 L 385.000 620" stroke="var(--accent-3)" stroke-width="3" stroke-linecap="round" opacity="0.72"/>
    <circle id="ITEM_3_PAD" cx="203.500" cy="548" r="42" fill="var(--icon-pad-bg)" stroke="var(--primary-text)" opacity="0.96" fill-opacity="0.9" stroke-width="2"/>
    <circle id="ITEM_3_PAD_INNER" cx="203.500" cy="548" r="32.76" fill="var(--accent-6)" fill-opacity="0.22"/>
    <circle cx="203.500" cy="548" r="34" fill="none" stroke="var(--accent-3)" stroke-width="3" stroke-dasharray="7 5" opacity="0.95"/>
    <g id="ITEM_3_ICON" transform="translate(173.500, 518)" data-icon-size="60">
      <g transform="translate(-5.5362711864406755,-5.5362711864406755) scale(2.9613559322033898)" vector-effect="non-scaling-stroke" stroke-width="2.43" stroke-linecap="round" stroke-linejoin="round" stroke-opacity="1.0">
        <path d="m14 13-8.381 8.38a1 1 0 0 1-3.001-3l8.384-8.381" vector-effect="non-scaling-stroke" fill="none" stroke="#f1f5f9"/>
        <path d="m16 16 6-6" vector-effect="non-scaling-stroke" fill="none" stroke="#f1f5f9"/>
        <path d="m21.5 10.5-8-8" vector-effect="non-scaling-stroke" fill="none" stroke="#f1f5f9"/>
        <path d="m8 8 6-6" vector-effect="non-scaling-stroke" fill="none" stroke="#f1f5f9"/>
        <path d="m8.5 7.5 8 8" vector-effect="non-scaling-stroke" fill="none" stroke="#f1f5f9"/>
      </g>
    </g>
    <g filter="url(#svg62c456d0-shadow)">
      <rect x="40.700" y="252" width="325.600" height="120" rx="24" fill="var(--accent-3)" stroke="var(--primary-text)" stroke-opacity="0.28" stroke-width="2.2"/>
      <path d="M 56.700 252 Q 203.500 234 350.300 252" fill="none" stroke="var(--primary-text)" stroke-opacity="0.30" stroke-width="3" stroke-linecap="round"/>
    </g>
    <rect x="56.700" y="270" width="293.600" height="14" rx="7" fill="var(--background)" fill-opacity="0.24"/>
    <rect x="61.700" y="306" width="85.200" height="34" rx="9" fill="url(#svg62c456d0-train-window-glass)" fill-opacity="0.92" stroke="var(--primary-text)" stroke-opacity="0.16" stroke-width="1"/>
    <rect x="160.900" y="306" width="85.200" height="34" rx="9" fill="url(#svg62c456d0-train-window-glass)" fill-opacity="0.92" stroke="var(--primary-text)" stroke-opacity="0.16" stroke-width="1"/>
    <rect x="260.100" y="306" width="85.200" height="34" rx="9" fill="url(#svg62c456d0-train-window-glass)" fill-opacity="0.92" stroke="var(--primary-text)" stroke-opacity="0.16" stroke-width="1"/>
    <circle cx="80.700" cy="384" r="13" fill="var(--background)" stroke="var(--primary-text)" stroke-opacity="0.20" stroke-width="1.5"/>
    <circle cx="326.300" cy="384" r="13" fill="var(--background)" stroke="var(--primary-text)" stroke-opacity="0.20" stroke-width="1.5"/>
    <line x1="80.700" y1="384" x2="326.300" y2="384" stroke="var(--primary-text)" stroke-opacity="0.22" stroke-width="4"/>
    <line x1="374.300" y1="333.600" x2="419.000" y2="333.600" stroke="var(--primary-text)" stroke-opacity="0.22" stroke-width="6" stroke-linecap="round"/>
    <text id="ITEM_3_HEAD" data-bg-id="ITEM_3_TEXT_BG" x="203.5" y="204.0" text-anchor="middle" font-weight="700" font-size="22" fill="var(--accent-6)" fill-opacity="1.0" stroke="none" style="font-size: 26px; font-family: Inter, Segoe UI, Kalam, Roboto, Helvetica, Arial, sans-serif; font-weight: 700; letter-spacing:-0.4px;" data-final-font-size="26">
      <tspan x="203.5" dy="20.85px">Check Waiver</tspan>
    </text>
    <rect id="ITEM_3_HEAD_FRAME" x="17" y="204" width="373.000" height="30" fill="none"/>
    <text id="ITEM_3_BODY" data-bg-id="ITEM_3_TEXT_BG" x="203.5" y="652.0" text-anchor="middle" font-size="16" fill="var(--primary-text)" style="font-size: 26px; font-family: Inter, Segoe UI, Kalam, Roboto, Helvetica, Arial, sans-serif; font-weight: 400;" data-final-font-size="26">
      <tspan x="203.5" dy="36.06px">Determine if conduct falls</tspan>
      <tspan x="203.5" dy="29.90px">within FTCA waiver</tspan>
      <tspan x="203.5" dy="29.90px">categories</tspan>
    </text>
    <rect id="ITEM_3_BODY_FRAME" x="22" y="652" width="363.000" height="166" fill="none"/>
  </g>
  <g transform="translate(1403.000,0)">
    <line x1="203.500" y1="466" x2="203.500" y2="542" stroke="var(--muted-text)" stroke-width="3" opacity="0.42"/>
    <circle cx="203.500" cy="456.000" r="22" fill="var(--panel)" opacity="0.92" stroke="var(--accent-4)" stroke-width="4"/>
    <circle cx="203.500" cy="456.000" r="8" fill="var(--accent-4)"/>
    <line x1="203.500" y1="240" x2="203.500" y2="248" stroke="var(--primary-text)" stroke-opacity="0.18" stroke-width="4"/>
    <g filter="url(#svg62c456d0-shadow)">
      <rect x="17" y="196" width="373.000" height="48" rx="18" fill="var(--panel)" fill-opacity="0.98" stroke="var(--accent-4)" stroke-opacity="0.65" stroke-width="2"/>
      <rect x="0" y="560" width="407.000" height="296" rx="30" fill="var(--panel)" fill-opacity="0.96" stroke="var(--primary-text)" stroke-opacity="0.10" stroke-width="1.5" id="ITEM_4_TEXT_BG"/>
      <path d="M 175.500 560 Q 203.500 538 231.500 560" fill="var(--panel)" fill-opacity="0.96"/>
    </g>
    <path d="M 22 620 L 385.000 620" stroke="var(--accent-4)" stroke-width="3" stroke-linecap="round" opacity="0.72"/>
    <circle id="ITEM_4_PAD" cx="203.500" cy="548" r="42" fill="var(--icon-pad-bg)" stroke="var(--primary-text)" opacity="0.96" fill-opacity="0.9" stroke-width="2"/>
    <circle id="ITEM_4_PAD_INNER" cx="203.500" cy="548" r="32.76" fill="var(--accent-1)" fill-opacity="0.22"/>
    <circle cx="203.500" cy="548" r="34" fill="none" stroke="var(--accent-4)" stroke-width="3" stroke-dasharray="7 5" opacity="0.95"/>
    <g id="ITEM_4_ICON" transform="translate(173.500, 518)" data-icon-size="60">
      <g transform="translate(-5.5362711864406755,-5.5362711864406755) scale(2.9613559322033898)" vector-effect="non-scaling-stroke" stroke-width="2.43" stroke-linecap="round" stroke-linejoin="round" stroke-opacity="1.0">
        <path d="m14 13-8.381 8.38a1 1 0 0 1-3.001-3l8.384-8.381" vector-effect="non-scaling-stroke" fill="none" stroke="#f1f5f9"/>
        <path d="m16 16 6-6" vector-effect="non-scaling-stroke" fill="none" stroke="#f1f5f9"/>
        <path d="m21.5 10.5-8-8" vector-effect="non-scaling-stroke" fill="none" stroke="#f1f5f9"/>
        <path d="m8 8 6-6" vector-effect="non-scaling-stroke" fill="none" stroke="#f1f5f9"/>
        <path d="m8.5 7.5 8 8" vector-effect="non-scaling-stroke" fill="none" stroke="#f1f5f9"/>
      </g>
    </g>
    <g filter="url(#svg62c456d0-shadow)">
      <rect x="40.700" y="252" width="325.600" height="120" rx="24" fill="var(--accent-4)" stroke="var(--primary-text)" stroke-opacity="0.28" stroke-width="2.2"/>
      <path d="M 56.700 252 Q 203.500 234 350.300 252" fill="none" stroke="var(--primary-text)" stroke-opacity="0.30" stroke-width="3" stroke-linecap="round"/>
    </g>
    <rect x="56.700" y="270" width="293.600" height="14" rx="7" fill="var(--background)" fill-opacity="0.24"/>
    <rect x="61.700" y="306" width="85.200" height="34" rx="9" fill="url(#svg62c456d0-train-window-glass)" fill-opacity="0.92" stroke="var(--primary-text)" stroke-opacity="0.16" stroke-width="1"/>
    <rect x="160.900" y="306" width="85.200" height="34" rx="9" fill="url(#svg62c456d0-train-window-glass)" fill-opacity="0.92" stroke="var(--primary-text)" stroke-opacity="0.16" stroke-width="1"/>
    <rect x="260.100" y="306" width="85.200" height="34" rx="9" fill="url(#svg62c456d0-train-window-glass)" fill-opacity="0.92" stroke="var(--primary-text)" stroke-opacity="0.16" stroke-width="1"/>
    <circle cx="80.700" cy="384" r="13" fill="var(--background)" stroke="var(--primary-text)" stroke-opacity="0.20" stroke-width="1.5"/>
    <circle cx="326.300" cy="384" r="13" fill="var(--background)" stroke="var(--primary-text)" stroke-opacity="0.20" stroke-width="1.5"/>
    <line x1="80.700" y1="384" x2="326.300" y2="384" stroke="var(--primary-text)" stroke-opacity="0.22" stroke-width="4"/>
    <text id="ITEM_4_HEAD" data-bg-id="ITEM_4_TEXT_BG" x="203.5" y="204.0" text-anchor="middle" font-weight="700" font-size="22" fill="var(--accent-1)" fill-opacity="1.0" stroke="none" style="font-size: 26px; font-family: Inter, Segoe UI, Kalam, Roboto, Helvetica, Arial, sans-serif; font-weight: 700; letter-spacing:-0.4px;" data-final-font-size="26">
      <tspan x="203.5" dy="20.85px">Assess Immunity</tspan>
    </text>
    <rect id="ITEM_4_HEAD_FRAME" x="17" y="204" width="373.000" height="30" fill="none"/>
    <text id="ITEM_4_BODY" data-bg-id="ITEM_4_TEXT_BG" x="203.5" y="652.0" text-anchor="middle" font-size="16" fill="var(--primary-text)" style="font-size: 26px; font-family: Inter, Segoe UI, Kalam, Roboto, Helvetica, Arial, sans-serif; font-weight: 400;" data-final-font-size="26">
      <tspan x="203.5" dy="36.06px">Evaluate if discretionary-</tspan>
      <tspan x="203.5" dy="29.90px">function exception restores</tspan>
      <tspan x="203.5" dy="29.90px">government immunity</tspan>
    </text>
    <rect id="ITEM_4_BODY_FRAME" x="22" y="652" width="363.000" height="166" fill="none"/>
  </g>
</svg>
